<svg width="auto" height="auto" viewBox="0 0 329 329" fill="none" xmlns="http://www.w3.org/2000/svg">
<path d="M153.163 9.31068C160.173 4.2178 169.665 4.21779 176.675 9.31067L309.213 105.605C316.223 110.698 319.156 119.726 316.478 127.966L265.853 283.774C263.176 292.014 255.497 297.594 246.832 297.594H83.006C74.3415 297.594 66.6624 292.014 63.9849 283.774L13.3598 127.966C10.6823 119.726 13.6155 110.698 20.6252 105.605L153.163 9.31068Z" fill="white"/>
<path d="M152.351 28.425C160.024 23.0827 170.261 23.1692 177.851 28.6838L290.425 110.474L290.783 110.74C298.116 116.296 301.217 125.839 298.55 134.645L298.417 135.071L255.417 267.409C252.472 276.474 244.025 282.612 234.494 282.612H95.3452C85.9632 282.612 77.6314 276.664 74.564 267.832L74.4214 267.409L31.4224 135.071C28.4772 126.006 31.703 116.076 39.4136 110.474L151.988 28.6838L152.351 28.425Z" fill="url(#paint0_radial_2_783)" stroke="#4D2700" stroke-width="4"/>
<path d="M165.131 210.328C177.401 210.328 187.348 200.381 187.348 188.111C187.348 175.841 177.401 165.894 165.131 165.894L165.13 165.895V165.894C152.86 165.894 142.914 155.947 142.914 143.677C142.914 131.408 152.86 121.462 165.13 121.462V121.461C159.295 121.461 153.516 122.609 148.125 124.842C142.734 127.075 137.836 130.349 133.71 134.475C129.584 138.601 126.311 143.499 124.078 148.89C121.845 154.281 120.696 160.059 120.696 165.894C120.696 171.729 121.845 177.507 124.078 182.898C126.311 188.289 129.584 193.187 133.71 197.313C137.836 201.439 142.735 204.713 148.126 206.946C153.336 209.104 158.908 210.246 164.543 210.321C164.738 210.326 164.934 210.328 165.131 210.328Z" fill="white"/>
<path d="M164.707 121.461C152.437 121.461 142.49 131.407 142.49 143.677C142.49 155.947 152.437 165.894 164.707 165.894L164.708 165.893V165.894H164.708C176.978 165.895 186.925 175.841 186.925 188.111C186.925 200.377 176.985 210.32 164.72 210.327C170.551 210.325 176.325 209.177 181.711 206.946C187.102 204.713 192 201.439 196.126 197.313C200.252 193.187 203.525 188.289 205.758 182.898C207.991 177.507 209.141 171.729 209.141 165.894C209.141 160.059 207.991 154.281 205.758 148.89C203.525 143.5 200.252 138.6 196.126 134.474C192.001 130.349 187.102 127.075 181.711 124.843C176.501 122.684 170.928 121.542 165.292 121.468C165.098 121.462 164.902 121.461 164.707 121.461Z" fill="#252525"/>
<circle cx="165.547" cy="143.642" r="4.44337" fill="white"/>
<circle cx="165.547" cy="188.857" r="4.44337" fill="#252525"/>
<circle cx="165.548" cy="64.7001" r="20.7357" fill="#BFBFBF"/>
<circle cx="69.33" cy="134.735" r="20.7357" fill="#BFBFBF"/>
<circle cx="105.98" cy="246.353" r="20.7357" fill="#BFBFBF"/>
<circle cx="225.608" cy="246.353" r="20.7357" fill="#BFBFBF"/>
<circle cx="260.508" cy="134.735" r="20.7357" fill="#BFBFBF"/>
<path d="M156.729 93.6235C156.899 93.098 156.611 92.5342 156.086 92.3642C155.56 92.1942 154.997 92.4824 154.827 93.0078L156.729 93.6235ZM106.236 246.439L114.808 238.702L103.821 235.147L106.236 246.439ZM155.778 93.3157L154.827 93.0078L108.055 237.568L109.007 237.876L109.958 238.184L156.729 93.6235L155.778 93.3157Z" fill="black"/>
<path d="M132.566 227.182C132.118 227.506 132.019 228.131 132.343 228.578C132.667 229.025 133.292 229.125 133.739 228.801L132.566 227.182ZM261.004 135.334L249.519 136.528L256.295 145.877L261.004 135.334ZM133.152 227.991L133.739 228.801L254.303 141.425L253.717 140.616L253.13 139.806L132.566 227.182L133.152 227.991Z" fill="black"/>
<path d="M235.504 135.257C236.057 135.257 236.504 134.809 236.504 134.257C236.504 133.705 236.057 133.257 235.504 133.257V135.257ZM70.3032 134.257L80.3032 140.03V128.483L70.3032 134.257ZM235.504 134.257V133.257H79.3032V134.257V135.257H235.504V134.257Z" fill="black"/>
<path d="M91.3615 149.25C90.9145 148.925 90.2892 149.024 89.9647 149.471C89.6402 149.918 89.7395 150.543 90.1864 150.868L91.3615 149.25ZM225.809 248.103L221.109 237.556L214.324 246.899L225.809 248.103ZM90.7739 150.059L90.1864 150.868L217.938 243.624L218.526 242.815L219.113 242.006L91.3615 149.25L90.7739 150.059Z" fill="black"/>
<path d="M215.16 220.4C215.331 220.925 215.896 221.212 216.421 221.04C216.946 220.869 217.233 220.305 217.061 219.78L215.16 220.4ZM165.833 66.0215L163.446 77.3192L174.424 73.7369L165.833 66.0215ZM216.111 220.09L217.061 219.78L169.575 74.2672L168.625 74.5774L167.674 74.8877L215.16 220.4L216.111 220.09Z" fill="black"/>
<defs>
<radialGradient id="paint0_radial_2_783" cx="0" cy="0" r="1" gradientUnits="userSpaceOnUse" gradientTransform="translate(164.919 164.85) rotate(90) scale(143.089)">
<stop stop-color="#FFA852"/>
<stop offset="1" stop-color="#FF7F00"/>
</radialGradient>
</defs>
</svg>
