<svg viewBox="0 0 282 286" fill="none" xmlns="http://www.w3.org/2000/svg">
<path d="M130.006 3.63418C137.937 -1.76871 148.71 -0.0407974 154.562 7.54141L273.466 92.9838L273.842 93.2621C281.532 99.089 283.31 109.939 277.88 117.914L277.612 118.298C274.299 122.907 269.225 125.499 263.969 125.818V261.764C263.969 275.019 253.224 285.764 239.969 285.764H42.1448C29.0972 285.764 18.4814 275.352 18.1527 262.383L18.1448 261.764V124.306C12.7375 124.23 7.4324 121.745 3.93586 117.131L3.65754 116.754C-2.18774 108.619 -0.331442 97.2854 7.80305 91.4398L129.626 3.89981H129.627L130.006 3.63418ZM240.994 281.738C240.655 281.755 240.313 281.763 239.969 281.763H42.1448L41.6282 281.757L42.1448 281.764H239.969L240.486 281.757C240.656 281.753 240.825 281.746 240.994 281.738ZM259.943 262.792C259.926 263.128 259.9 263.461 259.867 263.791C259.883 263.623 259.898 263.455 259.911 263.286L259.943 262.792Z" fill="white"/>
<mask id="path-2-outside-1_2_814" maskUnits="userSpaceOnUse" x="27.5142" y="28.1832" width="228" height="247" fill="black">
<rect fill="white" x="27.5142" y="28.1832" width="228" height="247"/>
<path d="M130.519 35.5657C136.795 31.0558 145.251 31.0557 151.527 35.5657L233.273 94.3069C236.008 96.2722 237.946 98.6916 239.171 101.316C245.891 104.54 250.531 111.407 250.531 119.358V250.801C250.531 261.847 241.576 270.801 230.531 270.801H51.5142C40.4685 270.801 31.5142 261.847 31.5142 250.801V119.358C31.5143 111.407 36.1539 104.54 42.8735 101.316C44.099 98.6917 46.037 96.2722 48.772 94.3069L130.519 35.5657Z"/>
</mask>
<path d="M130.519 35.5657C136.795 31.0558 145.251 31.0557 151.527 35.5657L233.273 94.3069C236.008 96.2722 237.946 98.6916 239.171 101.316C245.891 104.54 250.531 111.407 250.531 119.358V250.801C250.531 261.847 241.576 270.801 230.531 270.801H51.5142C40.4685 270.801 31.5142 261.847 31.5142 250.801V119.358C31.5143 111.407 36.1539 104.54 42.8735 101.316C44.099 98.6917 46.037 96.2722 48.772 94.3069L130.519 35.5657Z" fill="url(#paint0_linear_2_814)"/>
<path d="M130.519 35.5657L128.185 32.3173L128.185 32.3173L130.519 35.5657ZM151.527 35.5657L153.861 32.3173L153.861 32.3173L151.527 35.5657ZM233.273 94.3069L230.939 97.5552L230.939 97.5552L233.273 94.3069ZM239.171 101.316L235.547 103.008L236.152 104.304L237.441 104.922L239.171 101.316ZM250.531 119.358H254.531V119.358L250.531 119.358ZM31.5142 119.358L27.5142 119.358V119.358H31.5142ZM42.8735 101.316L44.6038 104.922L45.8928 104.304L46.4978 103.008L42.8735 101.316ZM48.772 94.3069L46.4378 91.0585L46.4377 91.0586L48.772 94.3069ZM130.519 35.5657L132.853 38.814C137.735 35.3063 144.311 35.3063 149.193 38.814L151.527 35.5657L153.861 32.3173C146.19 26.8052 135.856 26.8052 128.185 32.3173L130.519 35.5657ZM151.527 35.5657L149.193 38.814L230.939 97.5552L233.273 94.3069L235.607 91.0586L153.861 32.3173L151.527 35.5657ZM233.273 94.3069L230.939 97.5552C233.123 99.1246 234.614 101.01 235.547 103.008L239.171 101.316L242.796 99.623C241.278 96.3729 238.893 93.4198 235.607 91.0585L233.273 94.3069ZM239.171 101.316L237.441 104.922C242.826 107.506 246.531 113.003 246.531 119.358L250.531 119.358L254.531 119.358C254.531 109.81 248.956 101.573 240.902 97.7092L239.171 101.316ZM250.531 119.358H246.531V250.801H250.531H254.531V119.358H250.531ZM250.531 250.801H246.531C246.531 259.638 239.367 266.801 230.531 266.801V270.801V274.801C243.786 274.801 254.531 264.056 254.531 250.801H250.531ZM230.531 270.801V266.801H51.5142V270.801V274.801H230.531V270.801ZM51.5142 270.801V266.801C42.6776 266.801 35.5142 259.638 35.5142 250.801H31.5142H27.5142C27.5142 264.056 38.2593 274.801 51.5142 274.801V270.801ZM31.5142 250.801H35.5142V119.358H31.5142H27.5142V250.801H31.5142ZM31.5142 119.358L35.5142 119.358C35.5142 113.003 39.2187 107.506 44.6038 104.922L42.8735 101.316L41.1433 97.7093C33.0891 101.573 27.5143 109.811 27.5142 119.358L31.5142 119.358ZM42.8735 101.316L46.4978 103.008C47.4307 101.01 48.9221 99.1247 51.1062 97.5551L48.772 94.3069L46.4377 91.0586C43.1519 93.4198 40.7672 96.3729 39.2493 99.6231L42.8735 101.316ZM48.772 94.3069L51.1061 97.5552L132.853 38.814L130.519 35.5657L128.185 32.3173L46.4378 91.0585L48.772 94.3069Z" fill="#4D2700" mask="url(#path-2-outside-1_2_814)"/>
<path d="M131.568 16.4063C138.164 11.6664 147.327 13.1078 152.159 19.5987L261.883 98.4463C268.549 103.236 270.069 112.523 265.28 119.189C260.49 125.854 251.204 127.373 244.538 122.584L139.641 47.2061L36.7231 121.162C30.0577 125.952 20.7717 124.432 15.9819 117.767C11.1922 111.101 12.713 101.814 19.3783 97.0244L131.568 16.4063Z" fill="#FF8000"/>
<path d="M131.568 16.4063L130.401 14.7821L130.401 14.7821L131.568 16.4063ZM152.159 19.5987L150.554 20.7928L150.74 21.0417L150.992 21.2228L152.159 19.5987ZM261.883 98.4463L263.05 96.8222L263.05 96.8222L261.883 98.4463ZM265.28 119.189L266.904 120.356L266.904 120.356L265.28 119.189ZM244.538 122.584L243.371 124.208L243.371 124.208L244.538 122.584ZM139.641 47.2061L140.808 45.5819L139.641 44.7433L138.474 45.5819L139.641 47.2061ZM36.7231 121.162L37.8901 122.786L37.8902 122.786L36.7231 121.162ZM15.9819 117.767L14.3577 118.934L14.3578 118.934L15.9819 117.767ZM19.3783 97.0244L18.2112 95.4003L18.2112 95.4003L19.3783 97.0244ZM131.568 16.4063L132.735 18.0305C138.443 13.9287 146.373 15.1758 150.554 20.7928L152.159 19.5987L153.763 18.4045C148.281 11.0398 137.885 9.40407 130.401 14.7821L131.568 16.4063ZM152.159 19.5987L150.992 21.2228L260.716 100.07L261.883 98.4463L263.05 96.8222L153.326 17.9745L152.159 19.5987ZM261.883 98.4463L260.716 100.07C266.484 104.216 267.801 112.253 263.656 118.021L265.28 119.189L266.904 120.356C272.338 112.793 270.613 102.257 263.05 96.8222L261.883 98.4463ZM265.28 119.189L263.656 118.021C259.51 123.789 251.474 125.105 245.706 120.96L244.538 122.584L243.371 124.208C250.934 129.642 261.469 127.918 266.904 120.356L265.28 119.189ZM244.538 122.584L245.706 120.96L140.808 45.5819L139.641 47.2061L138.474 48.8302L243.371 124.208L244.538 122.584ZM139.641 47.2061L138.474 45.5819L35.556 119.538L36.7231 121.162L37.8902 122.786L140.808 48.8302L139.641 47.2061ZM36.7231 121.162L35.556 119.538C29.7875 123.683 21.7511 122.367 17.606 116.599L15.9819 117.767L14.3578 118.934C19.7922 126.496 30.3279 128.22 37.8901 122.786L36.7231 121.162ZM15.9819 117.767L17.606 116.6C13.4609 110.831 14.7771 102.794 20.5455 98.6486L19.3783 97.0244L18.2112 95.4003C10.6489 100.835 8.92343 111.371 14.3577 118.934L15.9819 117.767ZM19.3783 97.0244L20.5454 98.6486L132.735 18.0304L131.568 16.4063L130.401 14.7821L18.2112 95.4003L19.3783 97.0244Z" fill="#4D2700"/>
<circle cx="140.24" cy="116.046" r="26.4585" fill="url(#paint1_radial_2_814)" stroke="#4D2700" stroke-width="4"/>
<path d="M116.562 116.239L164.245 116.239" stroke="#4D2700" stroke-width="5" stroke-linecap="round"/>
<path d="M140.63 91.8799L140.63 140.505" stroke="#4D2700" stroke-width="5" stroke-linecap="round"/>
<rect x="169.689" y="157.217" width="63.2703" height="29.2223" rx="7" fill="url(#paint2_radial_2_814)" stroke="#4D2700" stroke-width="4"/>
<path d="M105.783 182.439C112.411 182.439 117.783 187.812 117.783 194.439V272.801H62.0371V194.439C62.0371 187.812 67.4097 182.439 74.0371 182.439H105.783Z" fill="#A24C0A" stroke="#4D2700" stroke-width="4"/>
<rect x="105.861" y="221.976" width="3.49624" height="8.7596" rx="1.74812" fill="#595959" stroke="black" stroke-width="3.49624"/>
<path d="M201.551 158.635L201.551 185.252" stroke="#4D2700" stroke-width="5" stroke-linecap="round"/>
<defs>
<linearGradient id="paint0_linear_2_814" x1="141.022" y1="32.1832" x2="141.022" y2="270.801" gradientUnits="userSpaceOnUse">
<stop stop-color="#FFEEBD"/>
<stop offset="1" stop-color="#FFBD00"/>
</linearGradient>
<radialGradient id="paint1_radial_2_814" cx="0" cy="0" r="1" gradientUnits="userSpaceOnUse" gradientTransform="translate(140.24 116.046) rotate(90) scale(24.4585)">
<stop stop-color="#4AC4E6"/>
<stop offset="1" stop-color="#A5ECFF"/>
</radialGradient>
<radialGradient id="paint2_radial_2_814" cx="0" cy="0" r="1" gradientUnits="userSpaceOnUse" gradientTransform="translate(201.324 171.828) rotate(90) scale(12.6111 29.6351)">
<stop stop-color="#8BE6FF"/>
<stop offset="1" stop-color="#00C8FF"/>
</radialGradient>
</defs>
</svg>
