<svg viewBox="0 0 319 327" fill="none" xmlns="http://www.w3.org/2000/svg">
<path d="M203.152 0.491821C222.273 5.5516 228.477 12.5882 228.477 28.8717C228.477 45.1553 203.152 43.7051 203.152 58.1708C203.152 72.6366 211.006 69.8322 211.006 77.2266C211.006 93.5234 199.06 99.3455 199.06 107.141C199.062 114.936 250.848 125.907 250.849 151.891C250.849 177.875 211.006 178.742 211.006 191.733C211.006 204.725 318.333 205.086 318.334 253.699C318.334 302.313 267.521 326.949 159.851 326.949C52.1816 326.949 0.939453 302.313 0.939453 253.699C0.940082 205.086 108.268 204.725 108.268 191.733C108.267 178.742 68.4248 177.875 68.4248 151.891C68.425 125.907 120.212 114.936 120.214 107.141C120.214 99.3455 108.268 88.2313 108.268 77.2266C108.268 66.2218 112.023 69.0089 112.023 58.1708C112.023 43.7051 90.5913 45.1553 90.5913 28.8717C90.5913 12.5882 104.38 0.491821 124.306 0.491821C155.146 0.49207 159.559 9.99731 159.851 22.0007C160.144 9.99731 172.312 0.49207 203.152 0.491821Z" fill="white"/>
<path d="M160.642 228.657C197.893 228.657 231.7 233.533 256.262 241.47C268.531 245.435 278.605 250.199 285.654 255.585C292.673 260.947 296.999 267.177 296.999 274.074C296.999 280.971 292.673 287.2 285.654 292.563C278.605 297.949 268.531 302.713 256.262 306.678C231.7 314.615 197.893 319.492 160.642 319.492C123.39 319.492 89.5839 314.615 65.0225 306.678C52.7529 302.713 42.678 297.949 35.6289 292.563C28.61 287.201 24.2852 280.971 24.2852 274.074C24.2853 267.177 28.61 260.947 35.6289 255.585C42.678 250.199 52.7529 245.435 65.0225 241.47C89.5839 233.533 123.39 228.657 160.642 228.657Z" fill="#B6B6B6" stroke="#4D2700" stroke-width="4"/>
<path d="M159.202 207.833C195.571 207.833 228.945 211.003 253.284 216.821C265.437 219.726 275.467 223.32 282.506 227.592C289.476 231.822 294.017 237.043 294.017 243.324C294.017 249.515 289.583 255.332 282.658 260.454C275.646 265.64 265.634 270.457 253.459 274.579C229.089 282.829 195.664 288.422 159.202 288.422C122.74 288.421 90.028 282.829 66.3677 274.573C54.548 270.448 44.8909 265.625 38.147 260.43C31.4717 255.288 27.2691 249.474 27.269 243.324C27.269 237.087 31.5726 231.863 38.2993 227.612C45.0741 223.33 54.7508 219.732 66.5483 216.825C90.1751 211.004 122.834 207.833 159.202 207.833Z" fill="#CACACA" stroke="#4D2700" stroke-width="4"/>
<path d="M284.346 239.821C284.346 259.437 228.318 284.262 159.999 284.262C91.6791 284.262 36.939 259.437 36.939 239.821C36.939 220.206 92.2022 211.432 160.522 211.432C228.841 211.432 284.346 220.206 284.346 239.821Z" fill="#B6B6B6"/>
<path d="M160.641 222.538C191.099 222.538 218.496 224.976 238.321 229.63C248.221 231.954 256.334 234.853 262.008 238.343C267.648 241.811 271.216 246.088 271.216 251.234C271.216 252.093 270.853 252.881 270.396 253.547C269.929 254.226 269.278 254.903 268.501 255.572C266.947 256.911 264.718 258.359 261.932 259.853C256.347 262.85 248.317 266.146 238.421 269.21C218.622 275.339 191.203 280.582 160.641 280.582C130.085 280.582 102.168 275.468 81.8687 269.405C71.7236 266.375 63.4411 263.096 57.6655 260.076C54.7846 258.57 52.473 257.1 50.8589 255.723C50.0524 255.036 49.3768 254.335 48.8931 253.628C48.4167 252.931 48.0523 252.117 48.0522 251.234L48.063 250.752C48.2873 245.794 51.9656 241.677 57.5942 238.331C63.454 234.847 71.8145 231.951 81.9634 229.628C102.287 224.976 130.182 222.538 160.641 222.538Z" fill="#7BB4FF" stroke="#4D2700" stroke-width="3"/>
<path d="M179.526 217.746C179.695 217.636 179.398 217.759 179.321 218.209L179.775 218.287L182.306 218.39V255.322L182.301 255.384L182.295 255.455L182.289 255.52L182.278 255.585C182.138 256.404 181.532 256.889 181.166 257.128C180.746 257.402 180.23 257.618 179.696 257.797C178.615 258.158 177.156 258.46 175.457 258.707C172.039 259.202 167.414 259.503 162.347 259.503C157.279 259.503 152.654 259.202 149.236 258.707C147.537 258.46 146.078 258.158 144.997 257.797C144.463 257.618 143.948 257.402 143.527 257.128C143.161 256.889 142.555 256.404 142.415 255.585L142.404 255.52L142.398 255.455L142.393 255.384L142.388 255.322V218.39H145.388C145.388 217.848 145.025 217.643 145.144 217.729C145.219 217.784 145.425 217.899 145.835 218.043C146.636 218.324 147.879 218.603 149.515 218.845C152.762 219.328 157.299 219.633 162.347 219.633C167.314 219.633 171.789 219.337 175.025 218.868C176.653 218.632 177.91 218.359 178.745 218.081C179.169 217.939 179.413 217.82 179.526 217.746Z" fill="#CBCBCB" stroke="#4D2700" stroke-width="3"/>
<path d="M162.347 213.649C167.511 213.649 172.229 213.96 175.693 214.474C177.41 214.729 178.907 215.046 180.018 215.436C180.561 215.627 181.132 215.876 181.605 216.219C182.021 216.521 182.805 217.226 182.806 218.39C182.806 219.555 182.021 220.261 181.605 220.562C181.132 220.906 180.561 221.155 180.018 221.345C178.907 221.735 177.41 222.052 175.693 222.307C172.229 222.822 167.511 223.132 162.347 223.132C157.183 223.132 152.465 222.822 149 222.307C147.283 222.052 145.787 221.735 144.676 221.345C144.133 221.155 143.561 220.906 143.088 220.562C142.699 220.279 141.984 219.642 141.896 218.604L141.888 218.39L141.896 218.177C141.984 217.139 142.699 216.502 143.088 216.219C143.561 215.876 144.133 215.627 144.676 215.436C145.787 215.046 147.283 214.729 149 214.474C152.465 213.96 157.183 213.649 162.347 213.649Z" fill="#D9D9D9" stroke="#4D2700" stroke-width="4"/>
<mask id="path-8-outside-1_2_836" maskUnits="userSpaceOnUse" x="150.04" y="187.085" width="25" height="33" fill="black">
<rect fill="white" x="150.04" y="187.085" width="25" height="33"/>
<path d="M171.653 214.699L171.642 214.793C171.393 215.76 167.326 216.529 162.347 216.529C157.367 216.529 153.301 215.76 153.052 214.793L153.04 214.699V190.085H171.653V214.699Z"/>
</mask>
<path d="M171.653 214.699L171.642 214.793C171.393 215.76 167.326 216.529 162.347 216.529C157.367 216.529 153.301 215.76 153.052 214.793L153.04 214.699V190.085H171.653V214.699Z" fill="#CBCBCB"/>
<path d="M171.653 214.699L174.63 215.071L174.653 214.886V214.699H171.653ZM171.642 214.793L174.547 215.54L174.595 215.355L174.618 215.165L171.642 214.793ZM162.347 216.529V219.529V216.529ZM153.052 214.793L150.075 215.165L150.099 215.355L150.146 215.54L153.052 214.793ZM153.04 214.699H150.04V214.886L150.063 215.071L153.04 214.699ZM153.04 190.085V187.085H150.04V190.085H153.04ZM171.653 190.085H174.653V187.085H171.653V190.085ZM171.653 214.699L168.676 214.327L168.665 214.421L171.642 214.793L174.618 215.165L174.63 215.071L171.653 214.699ZM171.642 214.793L168.736 214.045C168.937 213.266 169.411 212.873 169.523 212.785C169.665 212.673 169.731 212.661 169.62 212.707C169.406 212.798 168.953 212.937 168.215 213.075C166.773 213.345 164.705 213.529 162.347 213.529V216.529V219.529C164.968 219.529 167.423 219.328 169.321 218.972C170.254 218.797 171.175 218.563 171.949 218.237C172.332 218.075 172.795 217.844 173.227 217.505C173.629 217.19 174.284 216.561 174.547 215.54L171.642 214.793ZM162.347 216.529V213.529C159.989 213.529 157.92 213.345 156.478 213.075C155.74 212.937 155.288 212.798 155.073 212.707C154.962 212.661 155.028 212.673 155.171 212.785C155.283 212.873 155.757 213.266 155.957 214.045L153.052 214.793L150.146 215.54C150.409 216.561 151.065 217.19 151.466 217.505C151.898 217.844 152.361 218.075 152.744 218.237C153.518 218.563 154.44 218.797 155.372 218.972C157.271 219.328 159.725 219.529 162.347 219.529V216.529ZM153.052 214.793L156.029 214.421L156.017 214.327L153.04 214.699L150.063 215.071L150.075 215.165L153.052 214.793ZM153.04 214.699H156.04V190.085H153.04H150.04V214.699H153.04ZM153.04 190.085V193.085H171.653V190.085V187.085H153.04V190.085ZM171.653 190.085H168.653V214.699H171.653H174.653V190.085H171.653Z" fill="#4D2700" mask="url(#path-8-outside-1_2_836)"/>
<path d="M161.789 161.12C171.046 161.12 179.501 163.059 185.696 166.266C191.816 169.434 196.124 174.077 196.124 179.618C196.124 185.158 191.816 189.801 185.696 192.969C179.501 196.176 171.046 198.116 161.789 198.116C152.532 198.116 144.077 196.176 137.882 192.969C131.762 189.801 127.454 185.158 127.454 179.618C127.454 174.077 131.762 169.434 137.882 166.266C144.077 163.059 152.532 161.12 161.789 161.12Z" fill="#CBCBCB" stroke="#4D2700" stroke-width="3"/>
<path d="M159.635 134.316C179.938 134.316 198.401 136.973 211.856 141.32C218.572 143.491 224.152 146.117 228.095 149.13C232.009 152.12 234.617 155.741 234.617 159.9C234.617 164.058 232.008 167.678 228.095 170.668C224.152 173.681 218.572 176.308 211.856 178.479C198.401 182.827 179.938 185.484 159.635 185.484C139.332 185.484 120.869 182.827 107.415 178.479C100.698 176.308 95.1186 173.681 91.1753 170.668C87.262 167.678 84.6539 164.058 84.6538 159.9C84.6538 155.741 87.2619 152.12 91.1753 149.13C95.1186 146.117 100.699 143.491 107.415 141.32C120.869 136.973 139.332 134.316 159.635 134.316Z" fill="#B6B6B6" stroke="#4D2700" stroke-width="4"/>
<path d="M158.852 123.004C178.649 123.004 196.854 124.729 210.168 127.911C216.809 129.499 222.362 131.479 226.303 133.87C230.174 136.219 232.996 139.294 232.996 143.196C232.996 147.008 230.282 150.405 226.455 153.235C222.542 156.129 217.007 158.784 210.345 161.039C196.999 165.557 178.741 168.607 158.852 168.607C138.962 168.607 121.089 165.557 108.124 161.032C101.652 158.774 96.3069 156.115 92.5381 153.212C88.8379 150.362 86.2736 146.967 86.2734 143.196C86.2734 139.339 88.9387 136.26 92.6904 133.889C96.4902 131.487 101.855 129.504 108.305 127.915C121.236 124.729 139.056 123.004 158.852 123.004Z" fill="#CACACA" stroke="#4D2700" stroke-width="4"/>
<path d="M226.83 141.294C226.83 151.948 196.396 165.433 159.286 165.433C122.175 165.433 92.4409 151.948 92.4409 141.294C92.4409 130.639 122.459 125.873 159.57 125.873C196.68 125.873 226.83 130.639 226.83 141.294Z" fill="#B6B6B6"/>
<path d="M159.635 131.22C176.207 131.22 191.146 132.546 201.986 135.09C207.393 136.36 211.882 137.955 215.055 139.907C218.193 141.836 220.383 144.34 220.383 147.493C220.383 148.152 220.106 148.717 219.817 149.137C219.518 149.572 219.118 149.983 218.67 150.369C217.773 151.141 216.514 151.955 214.979 152.779C211.896 154.433 207.49 156.239 202.086 157.911C191.272 161.26 176.31 164.119 159.635 164.12C142.965 164.12 127.735 161.331 116.651 158.02C111.113 156.366 106.57 154.569 103.382 152.903C101.795 152.073 100.49 151.247 99.5581 150.453C99.0928 150.056 98.6773 149.632 98.3687 149.18C98.0672 148.739 97.7925 148.162 97.7925 147.493L97.7993 147.197C97.937 144.157 100.188 141.751 103.31 139.895C106.582 137.95 111.203 136.357 116.745 135.088C127.853 132.546 143.062 131.22 159.635 131.22Z" fill="#7BB4FF" stroke="#4D2700" stroke-width="3"/>
<path d="M170.064 113.533C170.058 113.537 169.992 113.58 169.913 113.674C169.83 113.771 169.704 113.96 169.656 114.238L170.358 114.359L172.639 114.452V134.864L172.634 134.925L172.63 134.965L172.625 135.029L172.613 135.094C172.487 135.831 171.95 136.235 171.704 136.395C171.403 136.591 171.059 136.733 170.739 136.84C170.087 137.057 169.236 137.232 168.282 137.37C166.355 137.649 163.769 137.815 160.95 137.815C158.131 137.815 155.544 137.649 153.617 137.37C152.663 137.232 151.813 137.057 151.161 136.84C150.842 136.733 150.496 136.592 150.195 136.395C149.964 136.244 149.478 135.88 149.314 135.228L149.286 135.094L149.275 135.029L149.27 134.965L149.267 134.925L149.262 134.864V114.452H152.262C152.262 114.144 152.152 113.907 152.053 113.76C151.961 113.626 151.871 113.558 151.85 113.543C151.815 113.518 151.859 113.555 152.06 113.626C152.442 113.76 153.079 113.907 153.966 114.039C155.716 114.299 158.187 114.466 160.95 114.466C163.669 114.466 166.105 114.304 167.852 114.051C168.734 113.923 169.383 113.779 169.788 113.643C169.98 113.579 170.057 113.537 170.064 113.533Z" fill="#CBCBCB" stroke="#4D2700" stroke-width="3"/>
<path d="M160.95 111.439C163.814 111.439 166.438 111.611 168.375 111.899C169.332 112.041 170.187 112.22 170.835 112.448C171.15 112.558 171.506 112.71 171.812 112.933C172.075 113.124 172.639 113.617 172.639 114.452C172.638 115.288 172.075 115.78 171.812 115.971C171.506 116.193 171.15 116.346 170.835 116.456C170.187 116.684 169.332 116.864 168.375 117.006C166.438 117.294 163.814 117.465 160.95 117.465C158.087 117.465 155.462 117.294 153.525 117.006C152.569 116.864 151.714 116.684 151.065 116.456C150.751 116.346 150.394 116.193 150.088 115.971C149.841 115.792 149.331 115.348 149.269 114.605L149.262 114.452L149.269 114.299C149.331 113.556 149.842 113.112 150.088 112.933C150.394 112.711 150.751 112.558 151.065 112.448C151.714 112.22 152.569 112.041 153.525 111.899C155.462 111.611 158.087 111.439 160.95 111.439Z" fill="#D9D9D9" stroke="#4D2700" stroke-width="3"/>
<mask id="path-17-outside-2_2_836" maskUnits="userSpaceOnUse" x="152.813" y="95.8287" width="17" height="21" fill="black">
<rect fill="white" x="152.813" y="95.8287" width="17" height="21"/>
<path d="M166.086 112.415L166.08 112.466C165.941 113 163.697 113.424 160.95 113.424C158.202 113.424 155.958 113 155.82 112.466L155.813 112.415V98.8287H166.086V112.415Z"/>
</mask>
<path d="M166.086 112.415L166.08 112.466C165.941 113 163.697 113.424 160.95 113.424C158.202 113.424 155.958 113 155.82 112.466L155.813 112.415V98.8287H166.086V112.415Z" fill="#CBCBCB"/>
<path d="M166.086 112.415L169.061 112.807L169.086 112.612V112.415H166.086ZM166.08 112.466L168.984 113.219L169.03 113.042L169.054 112.859L166.08 112.466ZM160.95 113.424L160.95 116.424H160.95V113.424ZM155.82 112.466L152.846 112.859L152.87 113.041L152.916 113.218L155.82 112.466ZM155.813 112.415H152.813V112.612L152.839 112.807L155.813 112.415ZM155.813 98.8287V95.8287H152.813V98.8287H155.813ZM166.086 98.8287H169.086V95.8287H166.086V98.8287ZM166.086 112.415L163.112 112.022L163.105 112.074L166.08 112.466L169.054 112.859L169.061 112.807L166.086 112.415ZM166.08 112.466L163.176 111.713C163.391 110.883 163.905 110.438 164.081 110.3C164.194 110.212 164.286 110.157 164.339 110.127C164.395 110.097 164.431 110.081 164.442 110.076C164.449 110.073 164.304 110.129 163.94 110.197C163.247 110.327 162.192 110.424 160.95 110.424V113.424V116.424C162.456 116.424 163.896 116.31 165.046 116.094C165.604 115.99 166.218 115.839 166.77 115.606C167.042 115.492 167.416 115.309 167.783 115.022C168.119 114.758 168.734 114.184 168.984 113.219L166.08 112.466ZM160.95 113.424L160.95 110.424C159.708 110.424 158.652 110.327 157.959 110.197C157.595 110.129 157.45 110.073 157.457 110.076C157.468 110.081 157.505 110.097 157.56 110.127C157.613 110.157 157.706 110.212 157.818 110.3C157.995 110.438 158.509 110.883 158.724 111.714L155.82 112.466L152.916 113.218C153.165 114.183 153.78 114.758 154.116 115.022C154.483 115.309 154.857 115.492 155.129 115.606C155.682 115.839 156.295 115.99 156.853 116.094C158.003 116.31 159.444 116.424 160.95 116.424L160.95 113.424ZM155.82 112.466L158.794 112.074L158.787 112.022L155.813 112.415L152.839 112.807L152.846 112.859L155.82 112.466ZM155.813 112.415H158.813V98.8287H155.813H152.813V112.415H155.813ZM155.813 98.8287V101.829H166.086V98.8287V95.8287H155.813V98.8287ZM166.086 98.8287H163.086V112.415H166.086H169.086V98.8287H166.086Z" fill="#4D2700" mask="url(#path-17-outside-2_2_836)"/>
<path d="M160.642 82.1694C165.836 82.1694 170.614 83.2563 174.147 85.0854C177.604 86.8754 180.265 89.6138 180.265 93.0513C180.265 96.4889 177.605 99.228 174.147 101.018C170.614 102.847 165.836 103.933 160.642 103.933C155.448 103.933 150.67 102.847 147.137 101.018C143.68 99.228 141.019 96.4889 141.019 93.0513C141.019 89.6138 143.68 86.8754 147.137 85.0854C150.67 83.2563 155.448 82.1694 160.642 82.1694Z" fill="#CBCBCB" stroke="#4D2700" stroke-width="3"/>
<path d="M160.641 65.1619C171.697 65.1619 181.788 66.6072 189.183 68.9968C192.869 70.1879 195.997 71.649 198.246 73.3669C200.464 75.0621 202.135 77.2598 202.135 79.9246C202.135 82.5892 200.464 84.786 198.246 86.4812C195.997 88.1992 192.869 89.6611 189.183 90.8523C181.788 93.2419 171.697 94.6873 160.641 94.6873C149.585 94.6873 139.494 93.2419 132.099 90.8523C128.413 89.6611 125.285 88.1992 123.037 86.4812C120.818 84.786 119.147 82.5892 119.147 79.9246C119.147 77.2598 120.818 75.0621 123.037 73.3669C125.285 71.649 128.413 70.1879 132.099 68.9968C139.494 66.6072 149.585 65.1619 160.641 65.1619Z" fill="#B6B6B6" stroke="#4D2700" stroke-width="4"/>
<path d="M160.216 59.0406C170.971 59.0406 180.9 59.9767 188.199 61.7213C191.833 62.5898 194.944 63.6886 197.194 65.0543C199.374 66.3774 201.257 68.2814 201.257 70.8854C201.257 73.3993 199.482 75.4763 197.346 77.0563C195.123 78.6999 192.031 80.1735 188.376 81.4108C181.045 83.8925 171.064 85.5543 160.216 85.5543C149.368 85.5543 139.592 83.8916 132.463 81.4039C128.909 80.1637 125.916 78.6856 123.771 77.0328C121.693 75.4327 120.022 73.3585 120.022 70.8854C120.022 68.3257 121.794 66.4181 123.923 65.0729C126.099 63.6974 129.111 62.5954 132.643 61.7252C139.738 59.977 149.462 59.0407 160.216 59.0406Z" fill="#CACACA" stroke="#4D2700" stroke-width="4"/>
<path d="M197.003 69.8558C197.003 75.6217 180.534 82.9191 160.451 82.9191C140.369 82.9191 124.278 75.6217 124.278 69.8558C124.278 64.0898 140.522 61.5106 160.605 61.5106C180.687 61.5106 197.003 64.0898 197.003 69.8558Z" fill="#B6B6B6"/>
<path d="M160.639 64.2162C169.615 64.2162 177.715 64.9342 183.601 66.3158C186.536 67.0046 188.987 67.8734 190.729 68.9447C192.447 70.0016 193.702 71.4063 193.702 73.2103C193.702 73.6201 193.53 73.9628 193.363 74.2064C193.189 74.4596 192.959 74.6947 192.709 74.9095C192.209 75.3403 191.515 75.7878 190.678 76.2367C188.996 77.1393 186.6 78.1211 183.668 79.0287C177.8 80.8456 169.684 82.3969 160.639 82.3969C151.599 82.3968 143.339 80.8836 137.325 79.0873C134.321 78.19 131.85 77.2143 130.111 76.3051C129.246 75.8528 128.526 75.3982 128.006 74.9554C127.747 74.7344 127.509 74.4927 127.33 74.2299C127.155 73.974 126.985 73.6244 126.985 73.2103L126.989 73.0404C127.068 71.3001 128.356 69.9516 130.063 68.9369C131.858 67.8697 134.381 67.003 137.387 66.3148C143.417 64.9346 151.663 64.2162 160.639 64.2162Z" fill="#7BB4FF" stroke="#4D2700" stroke-width="2"/>
<mask id="path-24-outside-3_2_836" maskUnits="userSpaceOnUse" x="99.3105" y="4.21899" width="57" height="49" fill="black">
<rect fill="white" x="99.3105" y="4.21899" width="57" height="49"/>
<path d="M134.475 9.45131C130.011 7.20194 124.821 6.65583 120.065 7.79782C118.719 8.11759 117.406 8.56728 116.148 9.13696C116.021 9.19429 115.894 9.25114 115.767 9.30828C114.636 9.81834 113.503 10.3233 112.367 10.8227C112.298 10.8529 112.23 10.8835 112.162 10.9146C111.379 11.2289 110.652 11.5842 109.999 11.9614C109.083 12.49 108.316 13.0607 107.74 13.5929C106.332 14.867 105.177 16.7262 104.576 18.1864C104.475 18.4243 104.385 18.6512 104.306 18.8622C103.798 20.0088 103.424 21.2201 103.201 22.4631C103.206 22.549 103.213 22.6355 103.22 22.7233C103.327 23.8146 103.198 25.1128 103.488 27.1431C103.547 27.537 103.626 27.9567 103.734 28.4044C103.854 28.9017 103.987 29.4416 104.137 30.0288C104.215 30.3314 104.292 30.5652 104.367 30.755C104.471 31.0287 104.576 31.2158 104.671 31.3821C104.721 31.4691 104.768 31.5499 104.813 31.632C104.968 31.9142 105.019 32.2458 105.104 32.6411C105.214 33.1504 105.382 33.7814 105.912 34.425C107.633 36.4119 108.445 37.1592 109.034 37.8523C109.212 38.045 109.382 38.2159 109.572 38.3678C110.184 38.8681 111.239 39.3037 112.065 39.4727C112.714 39.6255 113.962 40.0498 114.966 40.2531C115.296 40.3251 115.735 40.3625 116.251 40.3639C116.325 40.3641 116.401 40.3636 116.478 40.3624C117.108 40.3526 117.844 40.2918 118.626 40.1902C120.612 39.909 121.614 39.4245 122.398 39.0649C122.621 38.9567 122.826 38.8499 123.028 38.7379C123.668 38.386 124.421 37.8672 125.112 37.2542C125.944 36.5249 126.676 35.6603 127.186 34.9641C128.353 33.0576 128.997 30.8472 129.045 28.6394C129.073 27.5501 128.78 26.5154 128.336 25.8298C128.318 25.8044 128.299 25.779 128.281 25.7544C127.828 25.1484 127.323 24.8507 126.866 24.9292C126.409 25.008 126.032 25.4576 125.809 26.1804C125.8 26.2097 125.79 26.2399 125.782 26.2699C125.571 26.9161 125.444 27.669 125.365 28.4358C125.203 30.0515 124.597 31.592 123.661 32.8776C122.522 34.4479 120.906 35.6283 119.108 36.2404C118.194 36.5536 117.23 36.7179 116.251 36.7284C115.884 36.7325 115.519 36.7147 115.155 36.675C115.018 36.66 114.881 36.6419 114.745 36.6208C113.651 36.3223 112.67 35.796 112.024 35.3814C111.489 35.0411 111.086 34.813 110.743 34.5995C110.507 34.452 110.303 34.3096 110.13 34.1319C110.036 34.0364 109.914 33.9019 109.774 33.7335C109.186 33.0525 108.396 31.7606 107.904 30.4571C107.841 30.297 107.777 30.13 107.715 29.9542C107.526 29.3905 107.312 28.7912 107.104 28.2119C107.035 28.0209 106.968 27.8315 106.902 27.6468C106.6 26.8427 106.439 26.0857 106.443 25.6648C106.446 24.7814 106.433 23.7717 106.53 22.8757C106.618 22.0221 106.796 21.2801 107.006 20.9008C107.259 20.4486 107.378 20.0363 107.609 19.4289C107.772 19.0098 107.99 18.4955 108.397 17.8587C108.869 17.1267 109.228 16.6184 109.55 16.1942C110.008 15.6037 110.396 15.1694 111.129 14.7481C111.944 14.283 112.812 13.8772 113.485 13.5292C113.512 13.515 113.54 13.5008 113.569 13.4868C113.891 13.3279 114.259 13.1659 114.641 12.998C115.196 12.7541 115.779 12.4973 116.292 12.2192C116.679 12.0096 116.983 11.7865 117.252 11.5842C117.276 11.5659 117.299 11.5478 117.322 11.53C117.406 11.4655 117.487 11.4042 117.566 11.3476C117.897 11.2082 118.233 11.0797 118.572 10.9618C118.632 10.956 118.695 10.9511 118.76 10.9461C119.089 10.9209 119.491 10.8986 119.966 10.8227C120.719 10.7039 121.356 10.5249 122.045 10.3716C122.581 10.2536 123.148 10.1527 123.805 10.1413C124.252 10.1335 124.762 10.1687 125.262 10.227C126.006 10.3116 126.726 10.451 127.234 10.4981C127.425 10.5154 127.596 10.4885 127.767 10.4635L127.769 10.4627C127.781 10.461 127.793 10.4597 127.805 10.458C129.026 10.7346 130.211 11.1456 131.333 11.6777C131.427 11.7332 131.521 11.7898 131.613 11.8467C132.064 12.1234 132.485 12.4158 132.727 12.6569C132.985 12.9115 133.703 13.391 134.404 13.9764C134.42 13.9893 134.435 14.0028 134.451 14.0157C134.979 14.4473 135.525 14.8932 135.957 15.2755C136.21 15.4989 136.503 15.6379 136.804 15.7808C137.024 15.8852 137.248 15.9921 137.465 16.1352C137.52 16.1717 137.575 16.2115 137.629 16.2547C137.753 16.3545 137.875 16.4764 138.005 16.6083C138.118 16.7243 138.237 16.848 138.366 16.9706C138.486 17.0848 138.791 17.2904 139.173 17.571C139.408 17.7445 139.673 17.9466 139.941 18.1707C140.584 18.8332 141.187 19.5314 141.747 20.2595C141.83 20.4397 141.882 20.6105 141.896 20.7656C141.907 20.8769 141.898 20.9844 141.889 21.0941C141.876 21.2436 141.862 21.3974 141.888 21.5719C141.908 21.7083 141.971 21.8387 142.05 21.9004C142.086 21.9291 142.126 21.9427 142.161 21.9555C142.202 21.9701 142.239 21.9838 142.261 22.016C142.277 22.0392 142.28 22.0735 142.283 22.115C142.288 22.1815 142.295 22.2677 142.358 22.3618C142.592 22.7123 142.865 23.1063 143.118 23.5021C143.401 23.9418 143.661 24.3837 143.836 24.7516C144.033 25.1629 144.375 25.719 144.689 26.2974C144.908 26.7002 145.114 27.1127 145.264 27.4778C145.411 27.8358 145.502 28.2304 145.58 28.6127C145.673 29.0717 145.748 29.5129 145.891 29.8701C145.92 29.9422 146.01 30.0197 146.123 30.1184C146.203 30.1883 146.294 30.2698 146.381 30.3667C146.454 30.7093 146.52 31.053 146.579 31.3986C146.606 31.5527 146.632 31.7074 146.659 31.8615C146.653 31.8817 146.647 31.9027 146.64 31.9236L146.639 31.9244C146.49 32.3989 146.285 33.0485 146.604 33.8616C146.685 34.0683 146.792 34.1895 146.888 34.2985C146.983 34.4055 147.067 34.5015 147.107 34.6553C147.152 34.83 147.141 35.0469 147.128 35.2832C147.11 35.6151 147.09 35.986 147.222 36.3331C147.231 36.3567 147.241 36.3822 147.251 36.4086C147.345 36.6604 147.486 37.0336 147.703 37.3917C147.931 38.5227 148.166 39.653 148.405 40.782C148.804 42.6641 149.216 44.5447 149.627 46.4246C149.828 47.339 150.183 48.1892 150.628 48.7862C151.072 49.3833 151.567 49.6787 152.016 49.6051C152.465 49.5313 152.838 49.0937 153.069 48.3862C153.3 47.6785 153.366 46.7589 153.264 45.8282C153.097 44.3106 152.93 42.7923 152.756 41.2756C152.753 41.1952 152.749 41.1145 152.745 41.0343C152.711 40.4374 152.748 39.8723 152.786 39.3069C152.794 39.1772 152.803 39.0473 152.811 38.9171C152.869 37.9263 152.479 36.0979 152.265 35.0922C152.261 35.0738 152.257 35.0549 152.254 35.0364C152.203 34.7978 152.162 34.5708 152.115 34.3048C152.003 33.6704 151.852 32.8132 151.421 31.0434C151.399 30.901 151.377 30.7582 151.354 30.6159C151.289 30.1971 151.212 29.7806 151.125 29.3663C149.841 23.1959 146.207 17.5985 141.268 13.846C141.208 13.7954 141.147 13.7441 141.085 13.6927C140.718 13.3869 140.314 13.0687 139.897 12.7622C139.034 12.1267 138.148 11.4922 137.489 11.0852C137.243 10.933 137.012 10.792 136.794 10.66C135.854 10.0809 135.113 9.72832 134.475 9.45131Z"/>
</mask>
<path d="M134.475 9.45131C130.011 7.20194 124.821 6.65583 120.065 7.79782C118.719 8.11759 117.406 8.56728 116.148 9.13696C116.021 9.19429 115.894 9.25114 115.767 9.30828C114.636 9.81834 113.503 10.3233 112.367 10.8227C112.298 10.8529 112.23 10.8835 112.162 10.9146C111.379 11.2289 110.652 11.5842 109.999 11.9614C109.083 12.49 108.316 13.0607 107.74 13.5929C106.332 14.867 105.177 16.7262 104.576 18.1864C104.475 18.4243 104.385 18.6512 104.306 18.8622C103.798 20.0088 103.424 21.2201 103.201 22.4631C103.206 22.549 103.213 22.6355 103.22 22.7233C103.327 23.8146 103.198 25.1128 103.488 27.1431C103.547 27.537 103.626 27.9567 103.734 28.4044C103.854 28.9017 103.987 29.4416 104.137 30.0288C104.215 30.3314 104.292 30.5652 104.367 30.755C104.471 31.0287 104.576 31.2158 104.671 31.3821C104.721 31.4691 104.768 31.5499 104.813 31.632C104.968 31.9142 105.019 32.2458 105.104 32.6411C105.214 33.1504 105.382 33.7814 105.912 34.425C107.633 36.4119 108.445 37.1592 109.034 37.8523C109.212 38.045 109.382 38.2159 109.572 38.3678C110.184 38.8681 111.239 39.3037 112.065 39.4727C112.714 39.6255 113.962 40.0498 114.966 40.2531C115.296 40.3251 115.735 40.3625 116.251 40.3639C116.325 40.3641 116.401 40.3636 116.478 40.3624C117.108 40.3526 117.844 40.2918 118.626 40.1902C120.612 39.909 121.614 39.4245 122.398 39.0649C122.621 38.9567 122.826 38.8499 123.028 38.7379C123.668 38.386 124.421 37.8672 125.112 37.2542C125.944 36.5249 126.676 35.6603 127.186 34.9641C128.353 33.0576 128.997 30.8472 129.045 28.6394C129.073 27.5501 128.78 26.5154 128.336 25.8298C128.318 25.8044 128.299 25.779 128.281 25.7544C127.828 25.1484 127.323 24.8507 126.866 24.9292C126.409 25.008 126.032 25.4576 125.809 26.1804C125.8 26.2097 125.79 26.2399 125.782 26.2699C125.571 26.9161 125.444 27.669 125.365 28.4358C125.203 30.0515 124.597 31.592 123.661 32.8776C122.522 34.4479 120.906 35.6283 119.108 36.2404C118.194 36.5536 117.23 36.7179 116.251 36.7284C115.884 36.7325 115.519 36.7147 115.155 36.675C115.018 36.66 114.881 36.6419 114.745 36.6208C113.651 36.3223 112.67 35.796 112.024 35.3814C111.489 35.0411 111.086 34.813 110.743 34.5995C110.507 34.452 110.303 34.3096 110.13 34.1319C110.036 34.0364 109.914 33.9019 109.774 33.7335C109.186 33.0525 108.396 31.7606 107.904 30.4571C107.841 30.297 107.777 30.13 107.715 29.9542C107.526 29.3905 107.312 28.7912 107.104 28.2119C107.035 28.0209 106.968 27.8315 106.902 27.6468C106.6 26.8427 106.439 26.0857 106.443 25.6648C106.446 24.7814 106.433 23.7717 106.53 22.8757C106.618 22.0221 106.796 21.2801 107.006 20.9008C107.259 20.4486 107.378 20.0363 107.609 19.4289C107.772 19.0098 107.99 18.4955 108.397 17.8587C108.869 17.1267 109.228 16.6184 109.55 16.1942C110.008 15.6037 110.396 15.1694 111.129 14.7481C111.944 14.283 112.812 13.8772 113.485 13.5292C113.512 13.515 113.54 13.5008 113.569 13.4868C113.891 13.3279 114.259 13.1659 114.641 12.998C115.196 12.7541 115.779 12.4973 116.292 12.2192C116.679 12.0096 116.983 11.7865 117.252 11.5842C117.276 11.5659 117.299 11.5478 117.322 11.53C117.406 11.4655 117.487 11.4042 117.566 11.3476C117.897 11.2082 118.233 11.0797 118.572 10.9618C118.632 10.956 118.695 10.9511 118.76 10.9461C119.089 10.9209 119.491 10.8986 119.966 10.8227C120.719 10.7039 121.356 10.5249 122.045 10.3716C122.581 10.2536 123.148 10.1527 123.805 10.1413C124.252 10.1335 124.762 10.1687 125.262 10.227C126.006 10.3116 126.726 10.451 127.234 10.4981C127.425 10.5154 127.596 10.4885 127.767 10.4635L127.769 10.4627C127.781 10.461 127.793 10.4597 127.805 10.458C129.026 10.7346 130.211 11.1456 131.333 11.6777C131.427 11.7332 131.521 11.7898 131.613 11.8467C132.064 12.1234 132.485 12.4158 132.727 12.6569C132.985 12.9115 133.703 13.391 134.404 13.9764C134.42 13.9893 134.435 14.0028 134.451 14.0157C134.979 14.4473 135.525 14.8932 135.957 15.2755C136.21 15.4989 136.503 15.6379 136.804 15.7808C137.024 15.8852 137.248 15.9921 137.465 16.1352C137.52 16.1717 137.575 16.2115 137.629 16.2547C137.753 16.3545 137.875 16.4764 138.005 16.6083C138.118 16.7243 138.237 16.848 138.366 16.9706C138.486 17.0848 138.791 17.2904 139.173 17.571C139.408 17.7445 139.673 17.9466 139.941 18.1707C140.584 18.8332 141.187 19.5314 141.747 20.2595C141.83 20.4397 141.882 20.6105 141.896 20.7656C141.907 20.8769 141.898 20.9844 141.889 21.0941C141.876 21.2436 141.862 21.3974 141.888 21.5719C141.908 21.7083 141.971 21.8387 142.05 21.9004C142.086 21.9291 142.126 21.9427 142.161 21.9555C142.202 21.9701 142.239 21.9838 142.261 22.016C142.277 22.0392 142.28 22.0735 142.283 22.115C142.288 22.1815 142.295 22.2677 142.358 22.3618C142.592 22.7123 142.865 23.1063 143.118 23.5021C143.401 23.9418 143.661 24.3837 143.836 24.7516C144.033 25.1629 144.375 25.719 144.689 26.2974C144.908 26.7002 145.114 27.1127 145.264 27.4778C145.411 27.8358 145.502 28.2304 145.58 28.6127C145.673 29.0717 145.748 29.5129 145.891 29.8701C145.92 29.9422 146.01 30.0197 146.123 30.1184C146.203 30.1883 146.294 30.2698 146.381 30.3667C146.454 30.7093 146.52 31.053 146.579 31.3986C146.606 31.5527 146.632 31.7074 146.659 31.8615C146.653 31.8817 146.647 31.9027 146.64 31.9236L146.639 31.9244C146.49 32.3989 146.285 33.0485 146.604 33.8616C146.685 34.0683 146.792 34.1895 146.888 34.2985C146.983 34.4055 147.067 34.5015 147.107 34.6553C147.152 34.83 147.141 35.0469 147.128 35.2832C147.11 35.6151 147.09 35.986 147.222 36.3331C147.231 36.3567 147.241 36.3822 147.251 36.4086C147.345 36.6604 147.486 37.0336 147.703 37.3917C147.931 38.5227 148.166 39.653 148.405 40.782C148.804 42.6641 149.216 44.5447 149.627 46.4246C149.828 47.339 150.183 48.1892 150.628 48.7862C151.072 49.3833 151.567 49.6787 152.016 49.6051C152.465 49.5313 152.838 49.0937 153.069 48.3862C153.3 47.6785 153.366 46.7589 153.264 45.8282C153.097 44.3106 152.93 42.7923 152.756 41.2756C152.753 41.1952 152.749 41.1145 152.745 41.0343C152.711 40.4374 152.748 39.8723 152.786 39.3069C152.794 39.1772 152.803 39.0473 152.811 38.9171C152.869 37.9263 152.479 36.0979 152.265 35.0922C152.261 35.0738 152.257 35.0549 152.254 35.0364C152.203 34.7978 152.162 34.5708 152.115 34.3048C152.003 33.6704 151.852 32.8132 151.421 31.0434C151.399 30.901 151.377 30.7582 151.354 30.6159C151.289 30.1971 151.212 29.7806 151.125 29.3663C149.841 23.1959 146.207 17.5985 141.268 13.846C141.208 13.7954 141.147 13.7441 141.085 13.6927C140.718 13.3869 140.314 13.0687 139.897 12.7622C139.034 12.1267 138.148 11.4922 137.489 11.0852C137.243 10.933 137.012 10.792 136.794 10.66C135.854 10.0809 135.113 9.72832 134.475 9.45131Z" fill="#7BB4FF"/>
<path d="M134.475 9.45131C130.011 7.20194 124.821 6.65583 120.065 7.79782C118.719 8.11759 117.406 8.56728 116.148 9.13696C116.021 9.19429 115.894 9.25114 115.767 9.30828C114.636 9.81834 113.503 10.3233 112.367 10.8227C112.298 10.8529 112.23 10.8835 112.162 10.9146C111.379 11.2289 110.652 11.5842 109.999 11.9614C109.083 12.49 108.316 13.0607 107.74 13.5929C106.332 14.867 105.177 16.7262 104.576 18.1864C104.475 18.4243 104.385 18.6512 104.306 18.8622C103.798 20.0088 103.424 21.2201 103.201 22.4631C103.206 22.549 103.213 22.6355 103.22 22.7233C103.327 23.8146 103.198 25.1128 103.488 27.1431C103.547 27.537 103.626 27.9567 103.734 28.4044C103.854 28.9017 103.987 29.4416 104.137 30.0288C104.215 30.3314 104.292 30.5652 104.367 30.755C104.471 31.0287 104.576 31.2158 104.671 31.3821C104.721 31.4691 104.768 31.5499 104.813 31.632C104.968 31.9142 105.019 32.2458 105.104 32.6411C105.214 33.1504 105.382 33.7814 105.912 34.425C107.633 36.4119 108.445 37.1592 109.034 37.8523C109.212 38.045 109.382 38.2159 109.572 38.3678C110.184 38.8681 111.239 39.3037 112.065 39.4727C112.714 39.6255 113.962 40.0498 114.966 40.2531C115.296 40.3251 115.735 40.3625 116.251 40.3639C116.325 40.3641 116.401 40.3636 116.478 40.3624C117.108 40.3526 117.844 40.2918 118.626 40.1902C120.612 39.909 121.614 39.4245 122.398 39.0649C122.621 38.9567 122.826 38.8499 123.028 38.7379C123.668 38.386 124.421 37.8672 125.112 37.2542C125.944 36.5249 126.676 35.6603 127.186 34.9641C128.353 33.0576 128.997 30.8472 129.045 28.6394C129.073 27.5501 128.78 26.5154 128.336 25.8298C128.318 25.8044 128.299 25.779 128.281 25.7544C127.828 25.1484 127.323 24.8507 126.866 24.9292C126.409 25.008 126.032 25.4576 125.809 26.1804C125.8 26.2097 125.79 26.2399 125.782 26.2699C125.571 26.9161 125.444 27.669 125.365 28.4358C125.203 30.0515 124.597 31.592 123.661 32.8776C122.522 34.4479 120.906 35.6283 119.108 36.2404C118.194 36.5536 117.23 36.7179 116.251 36.7284C115.884 36.7325 115.519 36.7147 115.155 36.675C115.018 36.66 114.881 36.6419 114.745 36.6208C113.651 36.3223 112.67 35.796 112.024 35.3814C111.489 35.0411 111.086 34.813 110.743 34.5995C110.507 34.452 110.303 34.3096 110.13 34.1319C110.036 34.0364 109.914 33.9019 109.774 33.7335C109.186 33.0525 108.396 31.7606 107.904 30.4571C107.841 30.297 107.777 30.13 107.715 29.9542C107.526 29.3905 107.312 28.7912 107.104 28.2119C107.035 28.0209 106.968 27.8315 106.902 27.6468C106.6 26.8427 106.439 26.0857 106.443 25.6648C106.446 24.7814 106.433 23.7717 106.53 22.8757C106.618 22.0221 106.796 21.2801 107.006 20.9008C107.259 20.4486 107.378 20.0363 107.609 19.4289C107.772 19.0098 107.99 18.4955 108.397 17.8587C108.869 17.1267 109.228 16.6184 109.55 16.1942C110.008 15.6037 110.396 15.1694 111.129 14.7481C111.944 14.283 112.812 13.8772 113.485 13.5292C113.512 13.515 113.54 13.5008 113.569 13.4868C113.891 13.3279 114.259 13.1659 114.641 12.998C115.196 12.7541 115.779 12.4973 116.292 12.2192C116.679 12.0096 116.983 11.7865 117.252 11.5842C117.276 11.5659 117.299 11.5478 117.322 11.53C117.406 11.4655 117.487 11.4042 117.566 11.3476C117.897 11.2082 118.233 11.0797 118.572 10.9618C118.632 10.956 118.695 10.9511 118.76 10.9461C119.089 10.9209 119.491 10.8986 119.966 10.8227C120.719 10.7039 121.356 10.5249 122.045 10.3716C122.581 10.2536 123.148 10.1527 123.805 10.1413C124.252 10.1335 124.762 10.1687 125.262 10.227C126.006 10.3116 126.726 10.451 127.234 10.4981C127.425 10.5154 127.596 10.4885 127.767 10.4635L127.769 10.4627C127.781 10.461 127.793 10.4597 127.805 10.458C129.026 10.7346 130.211 11.1456 131.333 11.6777C131.427 11.7332 131.521 11.7898 131.613 11.8467C132.064 12.1234 132.485 12.4158 132.727 12.6569C132.985 12.9115 133.703 13.391 134.404 13.9764C134.42 13.9893 134.435 14.0028 134.451 14.0157C134.979 14.4473 135.525 14.8932 135.957 15.2755C136.21 15.4989 136.503 15.6379 136.804 15.7808C137.024 15.8852 137.248 15.9921 137.465 16.1352C137.52 16.1717 137.575 16.2115 137.629 16.2547C137.753 16.3545 137.875 16.4764 138.005 16.6083C138.118 16.7243 138.237 16.848 138.366 16.9706C138.486 17.0848 138.791 17.2904 139.173 17.571C139.408 17.7445 139.673 17.9466 139.941 18.1707C140.584 18.8332 141.187 19.5314 141.747 20.2595C141.83 20.4397 141.882 20.6105 141.896 20.7656C141.907 20.8769 141.898 20.9844 141.889 21.0941C141.876 21.2436 141.862 21.3974 141.888 21.5719C141.908 21.7083 141.971 21.8387 142.05 21.9004C142.086 21.9291 142.126 21.9427 142.161 21.9555C142.202 21.9701 142.239 21.9838 142.261 22.016C142.277 22.0392 142.28 22.0735 142.283 22.115C142.288 22.1815 142.295 22.2677 142.358 22.3618C142.592 22.7123 142.865 23.1063 143.118 23.5021C143.401 23.9418 143.661 24.3837 143.836 24.7516C144.033 25.1629 144.375 25.719 144.689 26.2974C144.908 26.7002 145.114 27.1127 145.264 27.4778C145.411 27.8358 145.502 28.2304 145.58 28.6127C145.673 29.0717 145.748 29.5129 145.891 29.8701C145.92 29.9422 146.01 30.0197 146.123 30.1184C146.203 30.1883 146.294 30.2698 146.381 30.3667C146.454 30.7093 146.52 31.053 146.579 31.3986C146.606 31.5527 146.632 31.7074 146.659 31.8615C146.653 31.8817 146.647 31.9027 146.64 31.9236L146.639 31.9244C146.49 32.3989 146.285 33.0485 146.604 33.8616C146.685 34.0683 146.792 34.1895 146.888 34.2985C146.983 34.4055 147.067 34.5015 147.107 34.6553C147.152 34.83 147.141 35.0469 147.128 35.2832C147.11 35.6151 147.09 35.986 147.222 36.3331C147.231 36.3567 147.241 36.3822 147.251 36.4086C147.345 36.6604 147.486 37.0336 147.703 37.3917C147.931 38.5227 148.166 39.653 148.405 40.782C148.804 42.6641 149.216 44.5447 149.627 46.4246C149.828 47.339 150.183 48.1892 150.628 48.7862C151.072 49.3833 151.567 49.6787 152.016 49.6051C152.465 49.5313 152.838 49.0937 153.069 48.3862C153.3 47.6785 153.366 46.7589 153.264 45.8282C153.097 44.3106 152.93 42.7923 152.756 41.2756C152.753 41.1952 152.749 41.1145 152.745 41.0343C152.711 40.4374 152.748 39.8723 152.786 39.3069C152.794 39.1772 152.803 39.0473 152.811 38.9171C152.869 37.9263 152.479 36.0979 152.265 35.0922C152.261 35.0738 152.257 35.0549 152.254 35.0364C152.203 34.7978 152.162 34.5708 152.115 34.3048C152.003 33.6704 151.852 32.8132 151.421 31.0434C151.399 30.901 151.377 30.7582 151.354 30.6159C151.289 30.1971 151.212 29.7806 151.125 29.3663C149.841 23.1959 146.207 17.5985 141.268 13.846C141.208 13.7954 141.147 13.7441 141.085 13.6927C140.718 13.3869 140.314 13.0687 139.897 12.7622C139.034 12.1267 138.148 11.4922 137.489 11.0852C137.243 10.933 137.012 10.792 136.794 10.66C135.854 10.0809 135.113 9.72832 134.475 9.45131Z" stroke="#4D2700" stroke-width="6" mask="url(#path-24-outside-3_2_836)"/>
<mask id="path-25-outside-4_2_836" maskUnits="userSpaceOnUse" x="165.988" y="5.40649" width="57" height="49" fill="black">
<rect fill="white" x="165.988" y="5.40649" width="57" height="49"/>
<path d="M187.824 10.6388C192.288 8.38944 197.478 7.84333 202.234 8.98532C203.58 9.30509 204.893 9.75478 206.151 10.3245C206.278 10.3818 206.405 10.4386 206.531 10.4958C207.662 11.0058 208.796 11.5108 209.932 12.0102C210.001 12.0404 210.069 12.071 210.137 12.1021C210.92 12.4164 211.647 12.7717 212.3 13.1489C213.216 13.6775 213.983 14.2482 214.559 14.7804C215.967 16.0545 217.122 17.9137 217.723 19.3739C217.824 19.6118 217.914 19.8387 217.993 20.0497C218.501 21.1963 218.874 22.4076 219.098 23.6506C219.092 23.7365 219.086 23.823 219.079 23.9108C218.972 25.0021 219.101 26.3003 218.811 28.3306C218.751 28.7245 218.673 29.1442 218.565 29.5919C218.445 30.0892 218.312 30.6291 218.162 31.2163C218.084 31.5189 218.007 31.7527 217.931 31.9425C217.828 32.2162 217.723 32.4033 217.628 32.5696C217.578 32.6566 217.531 32.7374 217.486 32.8195C217.331 33.1017 217.28 33.4333 217.195 33.8286C217.085 34.3379 216.916 34.9689 216.386 35.6125C214.666 37.5994 213.854 38.3467 213.265 39.0397C213.087 39.2325 212.917 39.4034 212.727 39.5553C212.115 40.0556 211.06 40.4912 210.234 40.6602C209.585 40.813 208.337 41.2373 207.333 41.4406C207.002 41.5126 206.564 41.55 206.048 41.5514C205.974 41.5516 205.898 41.5511 205.821 41.5499C205.191 41.5401 204.455 41.4793 203.672 41.3777C201.687 41.0965 200.685 40.612 199.901 40.2524C199.677 40.1442 199.473 40.0374 199.271 39.9254C198.631 39.5735 197.877 39.0547 197.186 38.4417C196.355 37.7124 195.623 36.8478 195.113 36.1516C193.946 34.2451 193.301 32.0347 193.254 29.8269C193.226 28.7376 193.519 27.7029 193.963 27.0173C193.981 26.9919 193.999 26.9665 194.018 26.9419C194.47 26.3359 194.975 26.0382 195.432 26.1167C195.889 26.1955 196.266 26.6451 196.49 27.3679C196.499 27.3972 196.508 27.4274 196.517 27.4574C196.727 28.1036 196.855 28.8565 196.934 29.6233C197.095 31.239 197.702 32.7795 198.638 34.0651C199.777 35.6354 201.393 36.8158 203.191 37.4279C204.105 37.7411 205.068 37.9054 206.048 37.9159C206.415 37.92 206.78 37.9022 207.144 37.8625C207.281 37.8475 207.418 37.8294 207.554 37.8083C208.648 37.5098 209.629 36.9835 210.275 36.5689C210.81 36.2286 211.213 36.0005 211.556 35.787C211.792 35.6395 211.996 35.4971 212.169 35.3194C212.262 35.2239 212.385 35.0894 212.525 34.9209C213.113 34.24 213.903 32.9481 214.395 31.6446C214.458 31.4845 214.522 31.3175 214.584 31.1416C214.773 30.578 214.987 29.9787 215.195 29.3994C215.263 29.2084 215.331 29.019 215.397 28.8343C215.699 28.0302 215.86 27.2732 215.856 26.8523C215.853 25.9689 215.866 24.9592 215.769 24.0632C215.681 23.2096 215.503 22.4676 215.292 22.0883C215.04 21.6361 214.921 21.2238 214.69 20.6163C214.527 20.1973 214.308 19.683 213.902 19.0462C213.43 18.3142 213.071 17.8059 212.748 17.3817C212.291 16.7912 211.903 16.3569 211.17 15.9356C210.355 15.4705 209.487 15.0647 208.814 14.7167C208.786 14.7025 208.759 14.6883 208.73 14.6743C208.408 14.5154 208.04 14.3534 207.658 14.1855C207.103 13.9416 206.519 13.6848 206.006 13.4067C205.62 13.1971 205.315 12.974 205.047 12.7717C205.023 12.7534 205 12.7353 204.977 12.7175C204.893 12.653 204.812 12.5917 204.733 12.5351C204.402 12.3957 204.066 12.2672 203.727 12.1493C203.667 12.1435 203.604 12.1386 203.539 12.1336C203.21 12.1084 202.808 12.0861 202.332 12.0102C201.58 11.8914 200.943 11.7124 200.254 11.5591C199.718 11.4411 199.151 11.3402 198.494 11.3288C198.047 11.321 197.537 11.3562 197.037 11.4145C196.293 11.4991 195.573 11.6385 195.065 11.6856C194.874 11.7029 194.703 11.676 194.532 11.651L194.529 11.6502C194.518 11.6485 194.506 11.6472 194.494 11.6455C193.273 11.9221 192.087 12.3331 190.965 12.8652C190.872 12.9207 190.778 12.9773 190.686 13.0342C190.235 13.3109 189.814 13.6033 189.572 13.8444C189.314 14.099 188.596 14.5785 187.895 15.1639C187.879 15.1768 187.864 15.1903 187.848 15.2032C187.32 15.6348 186.774 16.0807 186.341 16.463C186.089 16.6864 185.796 16.8254 185.495 16.9683C185.275 17.0727 185.051 17.1796 184.834 17.3227C184.778 17.3592 184.723 17.399 184.67 17.4422C184.546 17.542 184.423 17.6639 184.294 17.7958C184.18 17.9118 184.062 18.0355 183.933 18.1581C183.812 18.2723 183.507 18.4779 183.126 18.7585C182.891 18.932 182.626 19.1341 182.358 19.3582C181.715 20.0207 181.112 20.7189 180.552 21.447C180.469 21.6272 180.417 21.798 180.402 21.9531C180.392 22.0644 180.401 22.1719 180.41 22.2816C180.423 22.4311 180.437 22.5849 180.411 22.7594C180.391 22.8958 180.327 23.0262 180.249 23.0879C180.213 23.1166 180.173 23.1302 180.138 23.143C180.097 23.1576 180.06 23.1713 180.038 23.2035C180.022 23.2267 180.019 23.261 180.016 23.3025C180.01 23.369 180.004 23.4552 179.941 23.5493C179.707 23.8998 179.434 24.2938 179.18 24.6896C178.898 25.1293 178.638 25.5712 178.463 25.9391C178.266 26.3504 177.924 26.9065 177.61 27.4849C177.391 27.8877 177.184 28.3002 177.035 28.6653C176.888 29.0233 176.797 29.4179 176.719 29.8002C176.625 30.2592 176.551 30.7004 176.408 31.0576C176.379 31.1297 176.288 31.2072 176.176 31.3059C176.096 31.3758 176.005 31.4573 175.917 31.5542C175.845 31.8968 175.779 32.2405 175.719 32.5861C175.693 32.7402 175.667 32.8949 175.64 33.049C175.646 33.0692 175.652 33.0902 175.659 33.1111L175.66 33.1119C175.809 33.5864 176.014 34.236 175.695 35.049C175.614 35.2558 175.507 35.377 175.411 35.486C175.316 35.593 175.232 35.689 175.192 35.8428C175.147 36.0174 175.158 36.2344 175.171 36.4707C175.189 36.8026 175.208 37.1735 175.077 37.5206C175.068 37.5442 175.058 37.5697 175.048 37.5961C174.954 37.8479 174.813 38.2211 174.596 38.5792C174.368 39.7102 174.133 40.8405 173.894 41.9695C173.495 43.8516 173.083 45.7322 172.672 47.6121C172.471 48.5265 172.116 49.3767 171.671 49.9737C171.226 50.5708 170.732 50.8662 170.283 50.7926C169.834 50.7188 169.46 50.2812 169.23 49.5737C168.999 48.866 168.933 47.9464 169.035 47.0157C169.202 45.4981 169.369 43.9798 169.542 42.463C169.546 42.3827 169.55 42.302 169.554 42.2218C169.587 41.6249 169.551 41.0597 169.513 40.4944C169.505 40.3647 169.496 40.2348 169.488 40.1046C169.43 39.1138 169.82 37.2854 170.034 36.2797C170.038 36.2613 170.041 36.2424 170.045 36.2239C170.096 35.9853 170.137 35.7583 170.184 35.4923C170.296 34.8579 170.447 34.0007 170.878 32.2309C170.899 32.0885 170.922 31.9457 170.944 31.8034C171.01 31.3846 171.086 30.9681 171.174 30.5538C172.458 24.3834 176.092 18.786 181.031 15.0335C181.091 14.9829 181.152 14.9316 181.213 14.8802C181.581 14.5744 181.984 14.2562 182.402 13.9497C183.265 13.3142 184.151 12.6797 184.81 12.2727C185.056 12.1205 185.287 11.9795 185.504 11.8475C186.444 11.2684 187.186 10.9158 187.824 10.6388Z"/>
</mask>
<path d="M187.824 10.6388C192.288 8.38944 197.478 7.84333 202.234 8.98532C203.58 9.30509 204.893 9.75478 206.151 10.3245C206.278 10.3818 206.405 10.4386 206.531 10.4958C207.662 11.0058 208.796 11.5108 209.932 12.0102C210.001 12.0404 210.069 12.071 210.137 12.1021C210.92 12.4164 211.647 12.7717 212.3 13.1489C213.216 13.6775 213.983 14.2482 214.559 14.7804C215.967 16.0545 217.122 17.9137 217.723 19.3739C217.824 19.6118 217.914 19.8387 217.993 20.0497C218.501 21.1963 218.874 22.4076 219.098 23.6506C219.092 23.7365 219.086 23.823 219.079 23.9108C218.972 25.0021 219.101 26.3003 218.811 28.3306C218.751 28.7245 218.673 29.1442 218.565 29.5919C218.445 30.0892 218.312 30.6291 218.162 31.2163C218.084 31.5189 218.007 31.7527 217.931 31.9425C217.828 32.2162 217.723 32.4033 217.628 32.5696C217.578 32.6566 217.531 32.7374 217.486 32.8195C217.331 33.1017 217.28 33.4333 217.195 33.8286C217.085 34.3379 216.916 34.9689 216.386 35.6125C214.666 37.5994 213.854 38.3467 213.265 39.0397C213.087 39.2325 212.917 39.4034 212.727 39.5553C212.115 40.0556 211.06 40.4912 210.234 40.6602C209.585 40.813 208.337 41.2373 207.333 41.4406C207.002 41.5126 206.564 41.55 206.048 41.5514C205.974 41.5516 205.898 41.5511 205.821 41.5499C205.191 41.5401 204.455 41.4793 203.672 41.3777C201.687 41.0965 200.685 40.612 199.901 40.2524C199.677 40.1442 199.473 40.0374 199.271 39.9254C198.631 39.5735 197.877 39.0547 197.186 38.4417C196.355 37.7124 195.623 36.8478 195.113 36.1516C193.946 34.2451 193.301 32.0347 193.254 29.8269C193.226 28.7376 193.519 27.7029 193.963 27.0173C193.981 26.9919 193.999 26.9665 194.018 26.9419C194.47 26.3359 194.975 26.0382 195.432 26.1167C195.889 26.1955 196.266 26.6451 196.49 27.3679C196.499 27.3972 196.508 27.4274 196.517 27.4574C196.727 28.1036 196.855 28.8565 196.934 29.6233C197.095 31.239 197.702 32.7795 198.638 34.0651C199.777 35.6354 201.393 36.8158 203.191 37.4279C204.105 37.7411 205.068 37.9054 206.048 37.9159C206.415 37.92 206.78 37.9022 207.144 37.8625C207.281 37.8475 207.418 37.8294 207.554 37.8083C208.648 37.5098 209.629 36.9835 210.275 36.5689C210.81 36.2286 211.213 36.0005 211.556 35.787C211.792 35.6395 211.996 35.4971 212.169 35.3194C212.262 35.2239 212.385 35.0894 212.525 34.9209C213.113 34.24 213.903 32.9481 214.395 31.6446C214.458 31.4845 214.522 31.3175 214.584 31.1416C214.773 30.578 214.987 29.9787 215.195 29.3994C215.263 29.2084 215.331 29.019 215.397 28.8343C215.699 28.0302 215.86 27.2732 215.856 26.8523C215.853 25.9689 215.866 24.9592 215.769 24.0632C215.681 23.2096 215.503 22.4676 215.292 22.0883C215.04 21.6361 214.921 21.2238 214.69 20.6163C214.527 20.1973 214.308 19.683 213.902 19.0462C213.43 18.3142 213.071 17.8059 212.748 17.3817C212.291 16.7912 211.903 16.3569 211.17 15.9356C210.355 15.4705 209.487 15.0647 208.814 14.7167C208.786 14.7025 208.759 14.6883 208.73 14.6743C208.408 14.5154 208.04 14.3534 207.658 14.1855C207.103 13.9416 206.519 13.6848 206.006 13.4067C205.62 13.1971 205.315 12.974 205.047 12.7717C205.023 12.7534 205 12.7353 204.977 12.7175C204.893 12.653 204.812 12.5917 204.733 12.5351C204.402 12.3957 204.066 12.2672 203.727 12.1493C203.667 12.1435 203.604 12.1386 203.539 12.1336C203.21 12.1084 202.808 12.0861 202.332 12.0102C201.58 11.8914 200.943 11.7124 200.254 11.5591C199.718 11.4411 199.151 11.3402 198.494 11.3288C198.047 11.321 197.537 11.3562 197.037 11.4145C196.293 11.4991 195.573 11.6385 195.065 11.6856C194.874 11.7029 194.703 11.676 194.532 11.651L194.529 11.6502C194.518 11.6485 194.506 11.6472 194.494 11.6455C193.273 11.9221 192.087 12.3331 190.965 12.8652C190.872 12.9207 190.778 12.9773 190.686 13.0342C190.235 13.3109 189.814 13.6033 189.572 13.8444C189.314 14.099 188.596 14.5785 187.895 15.1639C187.879 15.1768 187.864 15.1903 187.848 15.2032C187.32 15.6348 186.774 16.0807 186.341 16.463C186.089 16.6864 185.796 16.8254 185.495 16.9683C185.275 17.0727 185.051 17.1796 184.834 17.3227C184.778 17.3592 184.723 17.399 184.67 17.4422C184.546 17.542 184.423 17.6639 184.294 17.7958C184.18 17.9118 184.062 18.0355 183.933 18.1581C183.812 18.2723 183.507 18.4779 183.126 18.7585C182.891 18.932 182.626 19.1341 182.358 19.3582C181.715 20.0207 181.112 20.7189 180.552 21.447C180.469 21.6272 180.417 21.798 180.402 21.9531C180.392 22.0644 180.401 22.1719 180.41 22.2816C180.423 22.4311 180.437 22.5849 180.411 22.7594C180.391 22.8958 180.327 23.0262 180.249 23.0879C180.213 23.1166 180.173 23.1302 180.138 23.143C180.097 23.1576 180.06 23.1713 180.038 23.2035C180.022 23.2267 180.019 23.261 180.016 23.3025C180.01 23.369 180.004 23.4552 179.941 23.5493C179.707 23.8998 179.434 24.2938 179.18 24.6896C178.898 25.1293 178.638 25.5712 178.463 25.9391C178.266 26.3504 177.924 26.9065 177.61 27.4849C177.391 27.8877 177.184 28.3002 177.035 28.6653C176.888 29.0233 176.797 29.4179 176.719 29.8002C176.625 30.2592 176.551 30.7004 176.408 31.0576C176.379 31.1297 176.288 31.2072 176.176 31.3059C176.096 31.3758 176.005 31.4573 175.917 31.5542C175.845 31.8968 175.779 32.2405 175.719 32.5861C175.693 32.7402 175.667 32.8949 175.64 33.049C175.646 33.0692 175.652 33.0902 175.659 33.1111L175.66 33.1119C175.809 33.5864 176.014 34.236 175.695 35.049C175.614 35.2558 175.507 35.377 175.411 35.486C175.316 35.593 175.232 35.689 175.192 35.8428C175.147 36.0174 175.158 36.2344 175.171 36.4707C175.189 36.8026 175.208 37.1735 175.077 37.5206C175.068 37.5442 175.058 37.5697 175.048 37.5961C174.954 37.8479 174.813 38.2211 174.596 38.5792C174.368 39.7102 174.133 40.8405 173.894 41.9695C173.495 43.8516 173.083 45.7322 172.672 47.6121C172.471 48.5265 172.116 49.3767 171.671 49.9737C171.226 50.5708 170.732 50.8662 170.283 50.7926C169.834 50.7188 169.46 50.2812 169.23 49.5737C168.999 48.866 168.933 47.9464 169.035 47.0157C169.202 45.4981 169.369 43.9798 169.542 42.463C169.546 42.3827 169.55 42.302 169.554 42.2218C169.587 41.6249 169.551 41.0597 169.513 40.4944C169.505 40.3647 169.496 40.2348 169.488 40.1046C169.43 39.1138 169.82 37.2854 170.034 36.2797C170.038 36.2613 170.041 36.2424 170.045 36.2239C170.096 35.9853 170.137 35.7583 170.184 35.4923C170.296 34.8579 170.447 34.0007 170.878 32.2309C170.899 32.0885 170.922 31.9457 170.944 31.8034C171.01 31.3846 171.086 30.9681 171.174 30.5538C172.458 24.3834 176.092 18.786 181.031 15.0335C181.091 14.9829 181.152 14.9316 181.213 14.8802C181.581 14.5744 181.984 14.2562 182.402 13.9497C183.265 13.3142 184.151 12.6797 184.81 12.2727C185.056 12.1205 185.287 11.9795 185.504 11.8475C186.444 11.2684 187.186 10.9158 187.824 10.6388Z" fill="#7BB4FF"/>
<path d="M187.824 10.6388C192.288 8.38944 197.478 7.84333 202.234 8.98532C203.58 9.30509 204.893 9.75478 206.151 10.3245C206.278 10.3818 206.405 10.4386 206.531 10.4958C207.662 11.0058 208.796 11.5108 209.932 12.0102C210.001 12.0404 210.069 12.071 210.137 12.1021C210.92 12.4164 211.647 12.7717 212.3 13.1489C213.216 13.6775 213.983 14.2482 214.559 14.7804C215.967 16.0545 217.122 17.9137 217.723 19.3739C217.824 19.6118 217.914 19.8387 217.993 20.0497C218.501 21.1963 218.874 22.4076 219.098 23.6506C219.092 23.7365 219.086 23.823 219.079 23.9108C218.972 25.0021 219.101 26.3003 218.811 28.3306C218.751 28.7245 218.673 29.1442 218.565 29.5919C218.445 30.0892 218.312 30.6291 218.162 31.2163C218.084 31.5189 218.007 31.7527 217.931 31.9425C217.828 32.2162 217.723 32.4033 217.628 32.5696C217.578 32.6566 217.531 32.7374 217.486 32.8195C217.331 33.1017 217.28 33.4333 217.195 33.8286C217.085 34.3379 216.916 34.9689 216.386 35.6125C214.666 37.5994 213.854 38.3467 213.265 39.0397C213.087 39.2325 212.917 39.4034 212.727 39.5553C212.115 40.0556 211.06 40.4912 210.234 40.6602C209.585 40.813 208.337 41.2373 207.333 41.4406C207.002 41.5126 206.564 41.55 206.048 41.5514C205.974 41.5516 205.898 41.5511 205.821 41.5499C205.191 41.5401 204.455 41.4793 203.672 41.3777C201.687 41.0965 200.685 40.612 199.901 40.2524C199.677 40.1442 199.473 40.0374 199.271 39.9254C198.631 39.5735 197.877 39.0547 197.186 38.4417C196.355 37.7124 195.623 36.8478 195.113 36.1516C193.946 34.2451 193.301 32.0347 193.254 29.8269C193.226 28.7376 193.519 27.7029 193.963 27.0173C193.981 26.9919 193.999 26.9665 194.018 26.9419C194.47 26.3359 194.975 26.0382 195.432 26.1167C195.889 26.1955 196.266 26.6451 196.49 27.3679C196.499 27.3972 196.508 27.4274 196.517 27.4574C196.727 28.1036 196.855 28.8565 196.934 29.6233C197.095 31.239 197.702 32.7795 198.638 34.0651C199.777 35.6354 201.393 36.8158 203.191 37.4279C204.105 37.7411 205.068 37.9054 206.048 37.9159C206.415 37.92 206.78 37.9022 207.144 37.8625C207.281 37.8475 207.418 37.8294 207.554 37.8083C208.648 37.5098 209.629 36.9835 210.275 36.5689C210.81 36.2286 211.213 36.0005 211.556 35.787C211.792 35.6395 211.996 35.4971 212.169 35.3194C212.262 35.2239 212.385 35.0894 212.525 34.9209C213.113 34.24 213.903 32.9481 214.395 31.6446C214.458 31.4845 214.522 31.3175 214.584 31.1416C214.773 30.578 214.987 29.9787 215.195 29.3994C215.263 29.2084 215.331 29.019 215.397 28.8343C215.699 28.0302 215.86 27.2732 215.856 26.8523C215.853 25.9689 215.866 24.9592 215.769 24.0632C215.681 23.2096 215.503 22.4676 215.292 22.0883C215.04 21.6361 214.921 21.2238 214.69 20.6163C214.527 20.1973 214.308 19.683 213.902 19.0462C213.43 18.3142 213.071 17.8059 212.748 17.3817C212.291 16.7912 211.903 16.3569 211.17 15.9356C210.355 15.4705 209.487 15.0647 208.814 14.7167C208.786 14.7025 208.759 14.6883 208.73 14.6743C208.408 14.5154 208.04 14.3534 207.658 14.1855C207.103 13.9416 206.519 13.6848 206.006 13.4067C205.62 13.1971 205.315 12.974 205.047 12.7717C205.023 12.7534 205 12.7353 204.977 12.7175C204.893 12.653 204.812 12.5917 204.733 12.5351C204.402 12.3957 204.066 12.2672 203.727 12.1493C203.667 12.1435 203.604 12.1386 203.539 12.1336C203.21 12.1084 202.808 12.0861 202.332 12.0102C201.58 11.8914 200.943 11.7124 200.254 11.5591C199.718 11.4411 199.151 11.3402 198.494 11.3288C198.047 11.321 197.537 11.3562 197.037 11.4145C196.293 11.4991 195.573 11.6385 195.065 11.6856C194.874 11.7029 194.703 11.676 194.532 11.651L194.529 11.6502C194.518 11.6485 194.506 11.6472 194.494 11.6455C193.273 11.9221 192.087 12.3331 190.965 12.8652C190.872 12.9207 190.778 12.9773 190.686 13.0342C190.235 13.3109 189.814 13.6033 189.572 13.8444C189.314 14.099 188.596 14.5785 187.895 15.1639C187.879 15.1768 187.864 15.1903 187.848 15.2032C187.32 15.6348 186.774 16.0807 186.341 16.463C186.089 16.6864 185.796 16.8254 185.495 16.9683C185.275 17.0727 185.051 17.1796 184.834 17.3227C184.778 17.3592 184.723 17.399 184.67 17.4422C184.546 17.542 184.423 17.6639 184.294 17.7958C184.18 17.9118 184.062 18.0355 183.933 18.1581C183.812 18.2723 183.507 18.4779 183.126 18.7585C182.891 18.932 182.626 19.1341 182.358 19.3582C181.715 20.0207 181.112 20.7189 180.552 21.447C180.469 21.6272 180.417 21.798 180.402 21.9531C180.392 22.0644 180.401 22.1719 180.41 22.2816C180.423 22.4311 180.437 22.5849 180.411 22.7594C180.391 22.8958 180.327 23.0262 180.249 23.0879C180.213 23.1166 180.173 23.1302 180.138 23.143C180.097 23.1576 180.06 23.1713 180.038 23.2035C180.022 23.2267 180.019 23.261 180.016 23.3025C180.01 23.369 180.004 23.4552 179.941 23.5493C179.707 23.8998 179.434 24.2938 179.18 24.6896C178.898 25.1293 178.638 25.5712 178.463 25.9391C178.266 26.3504 177.924 26.9065 177.61 27.4849C177.391 27.8877 177.184 28.3002 177.035 28.6653C176.888 29.0233 176.797 29.4179 176.719 29.8002C176.625 30.2592 176.551 30.7004 176.408 31.0576C176.379 31.1297 176.288 31.2072 176.176 31.3059C176.096 31.3758 176.005 31.4573 175.917 31.5542C175.845 31.8968 175.779 32.2405 175.719 32.5861C175.693 32.7402 175.667 32.8949 175.64 33.049C175.646 33.0692 175.652 33.0902 175.659 33.1111L175.66 33.1119C175.809 33.5864 176.014 34.236 175.695 35.049C175.614 35.2558 175.507 35.377 175.411 35.486C175.316 35.593 175.232 35.689 175.192 35.8428C175.147 36.0174 175.158 36.2344 175.171 36.4707C175.189 36.8026 175.208 37.1735 175.077 37.5206C175.068 37.5442 175.058 37.5697 175.048 37.5961C174.954 37.8479 174.813 38.2211 174.596 38.5792C174.368 39.7102 174.133 40.8405 173.894 41.9695C173.495 43.8516 173.083 45.7322 172.672 47.6121C172.471 48.5265 172.116 49.3767 171.671 49.9737C171.226 50.5708 170.732 50.8662 170.283 50.7926C169.834 50.7188 169.46 50.2812 169.23 49.5737C168.999 48.866 168.933 47.9464 169.035 47.0157C169.202 45.4981 169.369 43.9798 169.542 42.463C169.546 42.3827 169.55 42.302 169.554 42.2218C169.587 41.6249 169.551 41.0597 169.513 40.4944C169.505 40.3647 169.496 40.2348 169.488 40.1046C169.43 39.1138 169.82 37.2854 170.034 36.2797C170.038 36.2613 170.041 36.2424 170.045 36.2239C170.096 35.9853 170.137 35.7583 170.184 35.4923C170.296 34.8579 170.447 34.0007 170.878 32.2309C170.899 32.0885 170.922 31.9457 170.944 31.8034C171.01 31.3846 171.086 30.9681 171.174 30.5538C172.458 24.3834 176.092 18.786 181.031 15.0335C181.091 14.9829 181.152 14.9316 181.213 14.8802C181.581 14.5744 181.984 14.2562 182.402 13.9497C183.265 13.3142 184.151 12.6797 184.81 12.2727C185.056 12.1205 185.287 11.9795 185.504 11.8475C186.444 11.2684 187.186 10.9158 187.824 10.6388Z" stroke="#4D2700" stroke-width="6" mask="url(#path-25-outside-4_2_836)"/>
</svg>
