<svg viewBox="0 0 97 96" fill="none" xmlns="http://www.w3.org/2000/svg">
<path d="M48.9863 3.0083C73.8391 3.0083 93.9863 23.1555 93.9863 48.0083C93.9863 60.0877 89.2254 71.054 81.4795 79.1372C81.8682 76.758 82.0742 74.3167 82.0742 71.8276C82.0742 46.9748 61.927 26.8276 37.0742 26.8276C24.3008 26.8276 12.771 32.1502 4.58008 40.6978C8.07249 19.322 26.6229 3.0083 48.9863 3.0083Z" fill="#8E5F40"/>
<path d="M93.9863 48.0083C93.9863 72.8611 73.8391 93.0083 48.9863 93.0083C24.1335 93.0083 3.98633 72.8611 3.98633 48.0083C3.98633 23.1555 24.1335 3.0083 48.9863 3.0083C73.8391 3.0083 93.9863 23.1555 93.9863 48.0083Z" fill="#4D2700"/>
<path d="M93.9863 48.0083C93.9863 72.8611 73.8391 93.0083 48.9863 93.0083C24.1335 93.0083 3.98633 72.8611 3.98633 48.0083C3.98633 23.1555 24.1335 3.0083 48.9863 3.0083C73.8391 3.0083 93.9863 23.1555 93.9863 48.0083Z" fill="white" fill-opacity="0.2"/>
<path d="M4.45117 41.5327C9.343 58.9557 26.1935 74.3401 48.7822 79.7642C59.9415 82.4437 70.9561 82.3183 80.7256 79.9048C72.5885 88.002 61.3727 93.0083 48.9863 93.0083C24.1335 93.0083 3.98633 72.8611 3.98633 48.0083C3.98633 45.8093 4.1464 43.6474 4.45117 41.5327Z" fill="#4D2700"/>
<path d="M4.45117 41.5327C9.343 58.9557 26.1935 74.3401 48.7822 79.7642C59.9415 82.4437 70.9561 82.3183 80.7256 79.9048C72.5885 88.002 61.3727 93.0083 48.9863 93.0083C24.1335 93.0083 3.98633 72.8611 3.98633 48.0083C3.98633 45.8093 4.1464 43.6474 4.45117 41.5327Z" fill="white" fill-opacity="0.1"/>
<path d="M50.3096 75.5014L49.9214 76.9503C48.7177 81.4425 44.1716 84.1844 39.6734 83.2226L39.2383 83.1182C34.5615 81.865 31.8292 77.0676 33.0705 72.4351L33.4587 70.9862L50.3096 75.5014ZM58.5828 12.3007C62.0686 13.4269 64.0911 17.0916 63.1319 20.6715L62.7949 21.9289C72.0823 27.5762 75.1862 38.473 72.2863 49.2955L67.7739 66.136L70.7568 71.3038L70.8598 71.4892C72.8891 75.3367 69.4274 79.8142 65.2011 78.8546L64.9954 78.8036L19.0517 66.493C14.6332 65.3071 13.9292 59.3909 17.8497 57.1274L23.0169 54.1434L27.5293 37.3029C30.4382 26.4467 38.5338 18.581 49.4329 18.3465L49.7693 17.091C50.7595 13.3956 54.5454 11.2098 58.2408 12.2L58.5828 12.3007Z" fill="#FFCA16" stroke="black" stroke-width="3"/>
<path d="M48.9868 1.5083C74.6681 1.5083 95.4868 22.3271 95.4868 48.0083C95.4868 73.6895 74.6681 94.5083 48.9868 94.5083C23.3056 94.5083 2.48682 73.6895 2.48682 48.0083C2.48682 22.3271 23.3056 1.5083 48.9868 1.5083Z" stroke="black" stroke-width="3"/>
</svg>
