<svg viewBox="0 0 97 96" fill="none" xmlns="http://www.w3.org/2000/svg">
<path d="M48.9863 3.0083C73.8391 3.0083 93.9863 23.1555 93.9863 48.0083C93.9863 60.0877 89.2254 71.054 81.4795 79.1372C81.8682 76.758 82.0742 74.3167 82.0742 71.8276C82.0742 46.9748 61.927 26.8276 37.0742 26.8276C24.3008 26.8276 12.771 32.1502 4.58008 40.6978C8.07249 19.322 26.6229 3.0083 48.9863 3.0083Z" fill="#8E5F40"/>
<path d="M93.9863 48.0083C93.9863 72.8611 73.8391 93.0083 48.9863 93.0083C24.1335 93.0083 3.98633 72.8611 3.98633 48.0083C3.98633 23.1555 24.1335 3.0083 48.9863 3.0083C73.8391 3.0083 93.9863 23.1555 93.9863 48.0083Z" fill="#6A462E"/>
<path d="M48.9863 1.5083C74.6676 1.5083 95.4863 22.3271 95.4863 48.0083C95.4863 73.6895 74.6676 94.5083 48.9863 94.5083C23.3051 94.5083 2.48633 73.6895 2.48633 48.0083C2.48633 22.3271 23.3051 1.5083 48.9863 1.5083Z" stroke="black" stroke-width="3"/>
<path d="M4.45117 41.5327C9.343 58.9557 26.1935 74.3401 48.7822 79.7642C59.9415 82.4437 70.9561 82.3183 80.7256 79.9048C72.5885 88.002 61.3727 93.0083 48.9863 93.0083C24.1335 93.0083 3.98633 72.8611 3.98633 48.0083C3.98633 45.8093 4.1464 43.6474 4.45117 41.5327Z" fill="#59351E"/>
<path d="M71.3462 37.7878C74.704 37.9578 77.3726 40.7334 77.3726 44.1335C77.3724 46.8619 75.6536 49.1865 73.2397 50.0867C74.6648 50.2905 76.2392 50.6739 77.645 51.2371C78.7474 51.6787 79.8407 52.2671 80.6821 53.0437C81.5338 53.8297 82.2261 54.9086 82.2261 56.2664V57.4792C82.2261 58.975 81.0079 60.1931 79.5122 60.1931H62.5259C61.0303 60.1929 59.813 58.9749 59.813 57.4792V56.2664L59.8208 56.0144C59.9001 54.7745 60.5586 53.7805 61.3569 53.0437C62.1982 52.2673 63.291 51.6786 64.3931 51.2371C65.7987 50.674 67.3734 50.2905 68.7983 50.0867C66.3847 49.1863 64.6666 46.8617 64.6665 44.1335C64.6665 40.6238 67.5094 37.7802 71.019 37.78L71.3462 37.7878Z" fill="#FFCA16" stroke="black" stroke-width="3"/>
<path d="M30.6685 49.7543C33.0226 49.7543 36.4583 50.333 39.3433 51.4886C40.787 52.067 42.1872 52.8276 43.2505 53.809C44.324 54.7997 45.1528 56.1163 45.1528 57.7465V59.3695C45.1528 61.0906 43.7509 62.4926 42.0298 62.4926H19.3071C17.586 62.4925 16.1841 61.0906 16.1841 59.3695V57.7465L16.1938 57.4447C16.2888 55.9531 17.08 54.7378 18.0864 53.809C19.1497 52.8276 20.5499 52.067 21.9937 51.4886C24.8786 50.333 28.3143 49.7543 30.6685 49.7543ZM31.0796 33.5345C35.3038 33.7483 38.6606 37.2385 38.6606 41.516C38.6606 45.9314 35.0838 49.5082 30.6685 49.5082C26.2531 49.5081 22.6763 45.9313 22.6763 41.516C22.6763 37.1007 26.2531 33.5239 30.6685 33.5238L31.0796 33.5345Z" fill="#FFCA16" stroke="black" stroke-width="3"/>
<path d="M50.9985 52.8665C54.7776 52.8665 60.348 53.803 65.0112 55.6711C67.344 56.6057 69.544 57.8108 71.1851 59.3254C72.8363 60.8495 74.02 62.7883 74.02 65.1282V67.8186C74.0198 70.1264 72.1383 72.0079 69.8306 72.0081H32.1665C29.8586 72.0081 27.9763 70.1265 27.9761 67.8186V65.1282L27.9897 64.6936C28.126 62.5472 29.2632 60.7541 30.811 59.3254C32.4521 57.8108 34.653 56.6057 36.9858 55.6711C41.6491 53.8031 47.2196 52.8665 50.9985 52.8665ZM51.3149 25.968C57.9423 26.1359 63.2591 31.557 63.2593 38.2249C63.2593 44.9987 57.7723 50.4864 50.9985 50.4866C44.2246 50.4866 38.7368 44.9988 38.7368 38.2249C38.737 31.4511 44.2247 25.9641 50.9985 25.9641L51.3149 25.968Z" fill="#FFCA16" stroke="black" stroke-width="3"/>
</svg>
