<svg viewBox="0 0 97 96" fill="none" xmlns="http://www.w3.org/2000/svg">
<path d="M48.9863 3.0083C73.8391 3.0083 93.9863 23.1555 93.9863 48.0083C93.9863 60.0877 89.2254 71.054 81.4795 79.1372C81.8682 76.758 82.0742 74.3167 82.0742 71.8276C82.0742 46.9748 61.927 26.8276 37.0742 26.8276C24.3008 26.8276 12.771 32.1502 4.58008 40.6978C8.07249 19.322 26.6229 3.0083 48.9863 3.0083Z" fill="#8E5F40"/>
<path d="M93.9863 48.0083C93.9863 72.8611 73.8391 93.0083 48.9863 93.0083C24.1335 93.0083 3.98633 72.8611 3.98633 48.0083C3.98633 23.1555 24.1335 3.0083 48.9863 3.0083C73.8391 3.0083 93.9863 23.1555 93.9863 48.0083Z" fill="#6A462E"/>
<path d="M48.9863 1.5083C74.6676 1.5083 95.4863 22.3271 95.4863 48.0083C95.4863 73.6895 74.6676 94.5083 48.9863 94.5083C23.3051 94.5083 2.48633 73.6895 2.48633 48.0083C2.48633 22.3271 23.3051 1.5083 48.9863 1.5083Z" stroke="black" stroke-width="3"/>
<path d="M4.45117 41.5327C9.343 58.9557 26.1935 74.3401 48.7822 79.7642C59.9415 82.4437 70.9561 82.3183 80.7256 79.9048C72.5885 88.002 61.3727 93.0083 48.9863 93.0083C24.1335 93.0083 3.98633 72.8611 3.98633 48.0083C3.98633 45.8093 4.1464 43.6474 4.45117 41.5327Z" fill="#59351E"/>
<path d="M48.9854 53.5748C53.8897 53.5748 61.1459 54.7935 67.2139 57.2242C70.2489 58.4401 73.0812 59.9965 75.1787 61.9323C77.2864 63.8776 78.752 66.308 78.752 69.2086V72.7418C78.7518 75.5134 76.4903 77.7749 73.7188 77.775H24.252C21.4803 77.775 19.2189 75.5134 19.2188 72.7418V69.2086L19.2227 68.9381C19.3104 66.1565 20.7491 63.8169 22.791 61.9323C24.8886 59.9963 27.7216 58.4402 30.7568 57.2242C36.8248 54.7935 44.081 53.5748 48.9854 53.5748ZM49.3887 18.2467C57.839 18.4605 64.6179 25.3727 64.6182 33.8746C64.6182 42.5117 57.6224 49.5084 48.9854 49.5084C40.3483 49.5084 33.3516 42.5117 33.3516 33.8746C33.3518 25.2378 40.3484 18.2418 48.9854 18.2418L49.3887 18.2467Z" fill="#FFCA16" stroke="black" stroke-width="3"/>
</svg>
