<svg width="auto" height="auto" viewBox="0 0 46 46" fill="none" xmlns="http://www.w3.org/2000/svg">
<path d="M27.2779 8.42119C28.0144 7.82053 29.1 7.8629 29.7865 8.54937C30.4729 9.23583 30.5153 10.3215 29.9147 11.0579L29.7865 11.2007L17.9872 23L29.7865 34.7994L29.9147 34.9422C30.5153 35.6786 30.4729 36.7643 29.7865 37.4507C29.1 38.1372 28.0144 38.1796 27.2779 37.5789L27.1351 37.4507L14.0101 24.3257C13.2779 23.5935 13.2779 22.4066 14.0101 21.6744L27.1351 8.54937L27.2779 8.42119Z" fill="#4D2700"/>
<mask id="path-2-outside-1_2_624" maskUnits="userSpaceOnUse" x="6.58594" y="1.12524" width="31" height="44" fill="black">
<rect fill="white" x="6.58594" y="1.12524" width="31" height="44"/>
<path d="M26.3774 6.75688C27.7378 5.8463 29.5607 5.91975 30.8451 6.98051L31.1117 7.22367L31.3539 7.4893C32.416 8.77416 32.4892 10.598 31.5776 11.959L31.3666 12.2422C31.3481 12.2649 31.3296 12.2888 31.31 12.3106L31.182 12.4532C31.1596 12.4782 31.1355 12.5026 31.1117 12.5264L20.6381 23L31.1117 33.4737L31.182 33.5469L31.31 33.6895L31.3666 33.7579L31.5776 34.0411C32.5538 35.4989 32.4002 37.4879 31.1117 38.7764C29.8232 40.0646 27.8351 40.2174 26.3774 39.2413L26.0932 39.0313C26.0705 39.0128 26.0476 38.9942 26.0258 38.9747L25.8822 38.8457L25.809 38.7764L12.684 25.6514C11.2199 24.187 11.2199 21.8131 12.684 20.3487L25.809 7.22367L25.8822 7.15434L26.0258 7.02641L26.0932 6.96781L26.3774 6.75688Z"/>
</mask>
<path d="M26.3774 6.75688C27.7378 5.8463 29.5607 5.91975 30.8451 6.98051L31.1117 7.22367L31.3539 7.4893C32.416 8.77416 32.4892 10.598 31.5776 11.959L31.3666 12.2422C31.3481 12.2649 31.3296 12.2888 31.31 12.3106L31.182 12.4532C31.1596 12.4782 31.1355 12.5026 31.1117 12.5264L20.6381 23L31.1117 33.4737L31.182 33.5469L31.31 33.6895L31.3666 33.7579L31.5776 34.0411C32.5538 35.4989 32.4002 37.4879 31.1117 38.7764C29.8232 40.0646 27.8351 40.2174 26.3774 39.2413L26.0932 39.0313C26.0705 39.0128 26.0476 38.9942 26.0258 38.9747L25.8822 38.8457L25.809 38.7764L12.684 25.6514C11.2199 24.187 11.2199 21.8131 12.684 20.3487L25.809 7.22367L25.8822 7.15434L26.0258 7.02641L26.0932 6.96781L26.3774 6.75688Z" fill="#4D2700"/>
<path d="M26.3774 6.75688L23.5962 2.60175C23.5288 2.64689 23.4624 2.69366 23.3973 2.74203L26.3774 6.75688ZM30.8451 6.98051L34.2146 3.28632C34.154 3.23113 34.0922 3.17742 34.029 3.12527L30.8451 6.98051ZM31.1117 7.22367L34.8065 3.8549C34.7031 3.7415 34.5945 3.63291 34.4812 3.52949L31.1117 7.22367ZM31.3539 7.4893L35.2077 4.30368C35.1562 4.24135 35.1032 4.18028 35.0487 4.12053L31.3539 7.4893ZM31.5776 11.959L35.5875 14.9457C35.6372 14.8789 35.6853 14.8109 35.7317 14.7417L31.5776 11.959ZM31.3666 12.2422L35.2403 15.4036C35.287 15.3464 35.3324 15.2882 35.3765 15.2289L31.3666 12.2422ZM31.31 12.3106L27.5888 8.97104L27.5884 8.9714L31.31 12.3106ZM31.182 12.4532L34.9025 15.7936L34.9036 15.7924L31.182 12.4532ZM31.1117 12.5264L27.5762 8.99087V8.99087L31.1117 12.5264ZM20.6381 23L17.1026 19.4645C15.1499 21.4171 15.1499 24.583 17.1026 26.5356L20.6381 23ZM31.1117 33.4737L34.7187 30.011C34.6951 29.9865 34.6713 29.9622 34.6473 29.9381L31.1117 33.4737ZM31.182 33.5469L34.9036 30.2077C34.8661 30.1659 34.8279 30.1248 34.789 30.0843L31.182 33.5469ZM31.31 33.6895L35.1601 30.4994C35.1182 30.4489 35.0753 30.3992 35.0315 30.3503L31.31 33.6895ZM31.3666 33.7579L35.3765 30.7711C35.325 30.702 35.2717 30.6342 35.2167 30.5678L31.3666 33.7579ZM31.5776 34.0411L35.7322 31.2591C35.6857 31.1897 35.6374 31.1214 35.5875 31.0543L31.5776 34.0411ZM31.1117 38.7764L34.6469 42.3124L34.6473 42.3119L31.1117 38.7764ZM26.3774 39.2413L23.4062 43.2627C23.4682 43.3085 23.5313 43.3529 23.5954 43.3959L26.3774 39.2413ZM26.0932 39.0313L22.933 42.906C22.9948 42.9564 23.0578 43.0053 23.122 43.0527L26.0932 39.0313ZM26.0258 38.9747L22.6852 42.6949L22.6889 42.6982L26.0258 38.9747ZM25.8822 38.8457L22.4449 42.4768C22.4767 42.5069 22.509 42.5367 22.5416 42.566L25.8822 38.8457ZM25.809 38.7764L22.2735 42.3119C22.3057 42.3442 22.3385 42.3761 22.3716 42.4074L25.809 38.7764ZM12.684 25.6514L9.14812 29.1866L9.14846 29.1869L12.684 25.6514ZM12.684 20.3487L9.14846 16.8131L9.14805 16.8135L12.684 20.3487ZM25.809 7.22367L22.3716 3.59264C22.3385 3.62402 22.3057 3.65586 22.2735 3.68814L25.809 7.22367ZM25.8822 7.15434L22.5557 3.4215C22.5182 3.45487 22.4813 3.48881 22.4449 3.5233L25.8822 7.15434ZM26.0258 7.02641L22.7449 3.25338C22.7296 3.26668 22.7144 3.28008 22.6993 3.29357L26.0258 7.02641ZM26.0932 6.96781L23.1131 2.95296C23.0097 3.02967 22.9094 3.11034 22.8123 3.19479L26.0932 6.96781ZM26.3774 6.75688L29.1585 10.912C28.7038 11.2164 28.0999 11.198 27.6613 10.8358L30.8451 6.98051L34.029 3.12527C31.0215 0.641458 26.7718 0.476226 23.5962 2.60175L26.3774 6.75688ZM30.8451 6.98051L27.4757 10.6747L27.7423 10.9179L31.1117 7.22367L34.4812 3.52949L34.2146 3.28632L30.8451 6.98051ZM31.1117 7.22367L27.417 10.5924L27.6591 10.8581L31.3539 7.4893L35.0487 4.12053L34.8065 3.8549L31.1117 7.22367ZM31.3539 7.4893L27.5001 10.6749C27.1369 10.2355 27.1191 9.6306 27.4234 9.17633L31.5776 11.959L35.7317 14.7417C37.8593 11.5654 37.6951 7.31282 35.2077 4.30368L31.3539 7.4893ZM31.5776 11.959L27.5676 8.97232L27.3567 9.25552L31.3666 12.2422L35.3765 15.2289L35.5875 14.9457L31.5776 11.959ZM31.3666 12.2422L27.4929 9.08084C27.477 9.10031 27.4629 9.11784 27.4596 9.12191C27.4532 9.12989 27.4576 9.12436 27.4635 9.11715C27.4704 9.1087 27.4853 9.09053 27.5052 9.06691C27.5254 9.04309 27.5537 9.01009 27.5888 8.97104L31.31 12.3106L35.0312 15.6501C35.1176 15.5538 35.1839 15.473 35.2139 15.4363C35.2291 15.4176 35.2429 15.4005 35.2458 15.3969C35.2518 15.3895 35.247 15.3955 35.2403 15.4036L31.3666 12.2422ZM31.31 12.3106L27.5884 8.9714L27.4605 9.11398L31.182 12.4532L34.9036 15.7924L35.0315 15.6498L31.31 12.3106ZM31.182 12.4532L27.4616 9.11274C27.5017 9.06813 27.5336 9.0346 27.5516 9.01606C27.569 8.998 27.5803 8.9868 27.5762 8.99087L31.1117 12.5264L34.6473 16.0619C34.6805 16.0287 34.7848 15.9247 34.9025 15.7936L31.182 12.4532ZM31.1117 12.5264L27.5762 8.99087L17.1026 19.4645L20.6381 23L24.1736 26.5356L34.6473 16.0619L31.1117 12.5264ZM20.6381 23L17.1026 26.5356L27.5762 37.0092L31.1117 33.4737L34.6473 29.9381L24.1736 19.4645L20.6381 23ZM31.1117 33.4737L27.5048 36.9363L27.5751 37.0096L31.182 33.5469L34.789 30.0843L34.7187 30.011L31.1117 33.4737ZM31.182 33.5469L27.4605 36.8861L27.5884 37.0287L31.31 33.6895L35.0315 30.3503L34.9036 30.2077L31.182 33.5469ZM31.31 33.6895L27.4599 36.8796L27.5165 36.9479L31.3666 33.7579L35.2167 30.5678L35.1601 30.4994L31.31 33.6895ZM31.3666 33.7579L27.3567 36.7446L27.5676 37.0278L31.5776 34.0411L35.5875 31.0543L35.3765 30.7711L31.3666 33.7579ZM31.5776 34.0411L27.4229 36.823C27.099 36.3393 27.1412 35.6759 27.5762 35.2409L31.1117 38.7764L34.6473 42.3119C37.6593 39.2999 38.0085 34.6586 35.7322 31.2591L31.5776 34.0411ZM31.1117 38.7764L27.5766 35.2405C28.0127 34.8045 28.6769 34.7636 29.1593 35.0866L26.3774 39.2413L23.5954 43.3959C26.9934 45.6712 31.6338 45.3248 34.6469 42.3124L31.1117 38.7764ZM26.3774 39.2413L29.3485 35.2198L29.0644 35.0098L26.0932 39.0313L23.122 43.0527L23.4062 43.2627L26.3774 39.2413ZM26.0932 39.0313L29.2534 35.1566C29.2493 35.1532 29.2481 35.1523 29.246 35.1506C29.2445 35.1494 29.2443 35.1492 29.2447 35.1496C29.2455 35.1502 29.2515 35.1551 29.2603 35.1624C29.2771 35.1765 29.3146 35.208 29.3627 35.2511L26.0258 38.9747L22.6889 42.6982C22.7588 42.7609 22.8186 42.8114 22.858 42.8443C22.8942 42.8744 22.9289 42.9027 22.933 42.906L26.0932 39.0313ZM26.0258 38.9747L29.3664 35.2544L29.2229 35.1255L25.8822 38.8457L22.5416 42.566L22.6852 42.6949L26.0258 38.9747ZM25.8822 38.8457L29.3196 35.2147L29.2464 35.1454L25.809 38.7764L22.3716 42.4074L22.4449 42.4768L25.8822 38.8457ZM25.809 38.7764L29.3445 35.2409L16.2195 22.1159L12.684 25.6514L9.14846 29.1869L22.2735 42.3119L25.809 38.7764ZM12.684 25.6514L16.2199 22.1162C16.708 22.6044 16.7079 23.3957 16.2199 23.8838L12.684 20.3487L9.14805 16.8135C5.73198 20.2304 5.73179 25.7696 9.14812 29.1866L12.684 25.6514ZM12.684 20.3487L16.2195 23.8842L29.3445 10.7592L25.809 7.22367L22.2735 3.68814L9.14846 16.8131L12.684 20.3487ZM25.809 7.22367L29.2464 10.8547L29.3196 10.7854L25.8822 7.15434L22.4449 3.5233L22.3716 3.59264L25.809 7.22367ZM25.8822 7.15434L29.2088 10.8872L29.3523 10.7592L26.0258 7.02641L22.6993 3.29357L22.5557 3.4215L25.8822 7.15434ZM26.0258 7.02641L29.3067 10.7994L29.3741 10.7408L26.0932 6.96781L22.8123 3.19479L22.7449 3.25338L26.0258 7.02641ZM26.0932 6.96781L29.0733 10.9827L29.3575 10.7717L26.3774 6.75688L23.3973 2.74203L23.1131 2.95296L26.0932 6.96781Z" fill="white" mask="url(#path-2-outside-1_2_624)"/>
</svg>
