<svg width="auto" height="auto" viewBox="0 0 70 70" fill="none" xmlns="http://www.w3.org/2000/svg">
<path d="M50.4365 32.488C52.1005 34.664 52.1005 36.776 50.3085 38.824L41.4765 47.272L50.3085 55.72C52.1005 57.768 52.1005 59.88 50.4365 62.056C49.4125 62.952 48.3885 63.4 47.2365 63.4C46.0845 63.4 45.0605 63.016 44.1645 62.184L35.0125 53.416L25.9245 62.184C24.9645 63.016 23.9405 63.4 22.8525 63.4C21.6365 63.4 20.5485 62.952 19.5885 62.056C17.9245 59.88 17.9245 57.768 19.7165 55.72L28.6125 47.272L19.7165 38.824C17.9245 36.776 17.9245 34.664 19.5885 32.488C21.6365 30.76 23.7485 30.696 25.9245 32.36L35.0125 41.128L44.1645 32.36C46.2765 30.696 48.3885 30.76 50.4365 32.488Z" fill="#4D2700"/>
</svg>
