<svg width="auto" height="auto" viewBox="0 0 115 115" fill="none" xmlns="http://www.w3.org/2000/svg">
<path d="M102.082 54.8833C102.082 79.7361 81.9348 99.8833 57.082 99.8833C32.2292 99.8833 12.082 79.7361 12.082 54.8833C12.082 30.0305 32.2292 9.8833 57.082 9.8833C81.9348 9.8833 102.082 30.0305 102.082 54.8833Z" fill="#4D2700"/>
<path d="M102.082 54.8833C102.082 79.7361 81.9348 99.8833 57.082 99.8833C32.2292 99.8833 12.082 79.7361 12.082 54.8833C12.082 30.0305 32.2292 9.8833 57.082 9.8833C81.9348 9.8833 102.082 30.0305 102.082 54.8833Z" fill="white" fill-opacity="0.1"/>
<path d="M12.5469 48.4077C17.4387 65.8307 34.2892 81.2151 56.8779 86.6392C68.0372 89.3187 79.0518 89.1933 88.8213 86.7798C80.6842 94.877 69.4684 99.8833 57.082 99.8833C32.2292 99.8833 12.082 79.7361 12.082 54.8833C12.082 52.6843 12.2421 50.5224 12.5469 48.4077Z" fill="#4D2700"/>
<path d="M98.082 54.8833C98.082 32.2396 79.7257 13.8833 57.082 13.8833C34.4384 13.8833 16.082 32.2396 16.082 54.8833C16.082 77.527 34.4384 95.8833 57.082 95.8833V99.8833C32.2292 99.8833 12.082 79.7361 12.082 54.8833C12.082 30.0305 32.2292 9.8833 57.082 9.8833C81.9348 9.8833 102.082 30.0305 102.082 54.8833C102.082 79.7361 81.9348 99.8833 57.082 99.8833V95.8833C79.7257 95.8833 98.082 77.527 98.082 54.8833Z" fill="black"/>
<path d="M47.0723 34.77C49.5023 32.5747 53.1694 32.5067 55.6768 34.5649L55.916 34.77L55.9297 34.7827L55.9424 34.7954L56.1338 34.9761L56.1621 35.0034L56.1885 35.0317L56.3691 35.2222L56.3945 35.2495L56.6006 35.4878C58.6592 37.9953 58.5898 41.6622 56.3945 44.0923L56.3691 44.1196L56.1885 44.3101L56.1758 44.3247L56.1611 44.3384L52.2158 48.2837H78.9609L78.9971 48.2847H78.9961L79.1152 48.2876H79.124L79.1562 48.2886L79.1768 48.2896L79.1982 48.2905L79.2207 48.2915H79.2217C82.7116 48.468 85.4871 51.3497 85.4873 54.8833V54.8843C85.4868 58.4178 82.7112 61.2986 79.2217 61.4751L79.2207 61.4741L79.1982 61.4761L79.1768 61.4771L79.1562 61.478L79.124 61.479H79.1152L79 61.481L78.9971 61.4819L78.9609 61.4839H52.2168L56.1611 65.4282L56.1758 65.4419L56.1885 65.4565L56.3691 65.647L56.3818 65.6597L56.3945 65.6733C58.6628 68.1841 58.6616 72.0174 56.3887 74.5249L56.1611 74.7632C53.584 77.3398 49.4064 77.3394 46.8291 74.7642L30.0352 58.0132L30.0342 58.0112C29.3936 57.3706 28.9322 56.6456 28.7549 55.8188C28.5751 54.98 28.7226 54.1998 29.0137 53.522C29.5459 52.2828 30.6812 51.1513 31.6162 50.2163L46.8271 35.0034L46.8398 34.9907L46.8535 34.979L47.043 34.7983L47.0576 34.7837L47.0723 34.77Z" fill="white" stroke="black" stroke-width="3"/>
</svg>
