<svg width="auto" height="auto" viewBox="0 0 115 115" fill="none" xmlns="http://www.w3.org/2000/svg">
<path d="M12.082 54.8833C12.082 79.7361 32.2292 99.8833 57.082 99.8833C81.9348 99.8833 102.082 79.7361 102.082 54.8833C102.082 30.0305 81.9348 9.8833 57.082 9.8833C32.2292 9.8833 12.082 30.0305 12.082 54.8833Z" fill="#4D2700"/>
<path d="M12.082 54.8833C12.082 79.7361 32.2292 99.8833 57.082 99.8833C81.9348 99.8833 102.082 79.7361 102.082 54.8833C102.082 30.0305 81.9348 9.8833 57.082 9.8833C32.2292 9.8833 12.082 30.0305 12.082 54.8833Z" fill="white" fill-opacity="0.1"/>
<path d="M101.617 48.4077C96.7254 65.8307 79.8748 81.2151 57.2861 86.6392C46.1269 89.3187 35.1122 89.1933 25.3428 86.7798C33.4799 94.877 44.6956 99.8833 57.082 99.8833C81.9348 99.8833 102.082 79.7361 102.082 54.8833C102.082 52.6843 101.922 50.5224 101.617 48.4077Z" fill="#4D2700"/>
<path d="M16.082 54.8833C16.082 32.2396 34.4384 13.8833 57.082 13.8833C79.7257 13.8833 98.082 32.2396 98.082 54.8833C98.082 77.527 79.7257 95.8833 57.082 95.8833V99.8833C81.9348 99.8833 102.082 79.7361 102.082 54.8833C102.082 30.0305 81.9348 9.8833 57.082 9.8833C32.2292 9.8833 12.082 30.0305 12.082 54.8833C12.082 79.7361 32.2292 99.8833 57.082 99.8833V95.8833C34.4384 95.8833 16.082 77.527 16.082 54.8833Z" fill="black"/>
<path d="M67.0918 34.77C64.6617 32.5747 60.9947 32.5067 58.4873 34.5649L58.248 34.77L58.2344 34.7827L58.2217 34.7954L58.0303 34.9761L58.002 35.0034L57.9756 35.0317L57.7949 35.2222L57.7695 35.2495L57.5635 35.4878C55.5048 37.9953 55.5742 41.6622 57.7695 44.0923L57.7949 44.1196L57.9756 44.3101L57.9883 44.3247L58.0029 44.3384L61.9482 48.2837H35.2031L35.167 48.2847H35.168L35.0488 48.2876H35.04L35.0078 48.2886L34.9873 48.2896L34.9658 48.2905L34.9434 48.2915H34.9424C31.4525 48.468 28.677 51.3497 28.6768 54.8833V54.8843C28.6773 58.4178 31.4528 61.2986 34.9424 61.4751L34.9434 61.4741L34.9658 61.4761L34.9873 61.4771L35.0078 61.478L35.04 61.479H35.0488L35.1641 61.481L35.167 61.4819L35.2031 61.4839H61.9473L58.0029 65.4282L57.9883 65.4419L57.9756 65.4565L57.7949 65.647L57.7822 65.6597L57.7695 65.6733C55.5012 68.1841 55.5025 72.0174 57.7754 74.5249L58.0029 74.7632C60.58 77.3398 64.7577 77.3394 67.335 74.7642L84.1289 58.0132L84.1299 58.0112C84.7704 57.3706 85.2319 56.6456 85.4092 55.8188C85.589 54.98 85.4415 54.1998 85.1504 53.522C84.6181 52.2828 83.4828 51.1513 82.5479 50.2163L67.3369 35.0034L67.3242 34.9907L67.3105 34.979L67.1211 34.7983L67.1064 34.7837L67.0918 34.77Z" fill="white" stroke="black" stroke-width="3"/>
</svg>
